<?xml version="1.0" encoding="UTF-8" standalone="no"?>
<svg
   version="1.1"
   id="Layer_1"
   x="0px"
   y="0px"
   width="100%"
   viewBox="0 0 512 512"
   enable-background="new 0 0 512 512"
   xml:space="preserve"
   sodipodi:docname="appicon.svg"
   inkscape:version="1.3.2 (091e20e, 2023-11-25, custom)"
   xmlns:inkscape="http://www.inkscape.org/namespaces/inkscape"
   xmlns:sodipodi="http://sodipodi.sourceforge.net/DTD/sodipodi-0.dtd"
   xmlns="http://www.w3.org/2000/svg"
   xmlns:svg="http://www.w3.org/2000/svg"><defs
   id="defs129" /><sodipodi:namedview
   id="namedview129"
   pagecolor="#ffffff"
   bordercolor="#000000"
   borderopacity="0.25"
   inkscape:showpageshadow="2"
   inkscape:pageopacity="0.0"
   inkscape:pagecheckerboard="0"
   inkscape:deskcolor="#d1d1d1"
   inkscape:zoom="2.0234375"
   inkscape:cx="256"
   inkscape:cy="255.7529"
   inkscape:window-width="2560"
   inkscape:window-height="1351"
   inkscape:window-x="-9"
   inkscape:window-y="-9"
   inkscape:window-maximized="1"
   inkscape:current-layer="Layer_1" />
<rect
   style="fill:#000000;fill-opacity:1;stroke:#000000;stroke-width:6.48518;stroke-linejoin:round"
   id="rect1"
   width="507.84024"
   height="507.84024"
   x="3.5625129"
   y="2.5740783" />
<path
   fill="#38437f"
   opacity="1"
   stroke="none"
   d="m 142.19669,344.61121 c -4.43472,4.44892 -8.70781,8.71756 -12.95814,13.00872 -3.03932,3.06857 -5.87164,2.83784 -8.48833,-0.56588 -3.48903,-4.53845 -7.26499,-8.86656 -10.57983,-13.5255 -2.80122,-3.93707 -5.27688,-8.13088 -7.61206,-12.36792 -2.50664,-4.54822 -5.091208,-9.12531 -6.91086,-13.96474 -3.280877,-8.72558 -6.259719,-17.58452 -8.895642,-26.52609 -1.755383,-5.95461 -3.074182,-12.09702 -3.925005,-18.24718 -1.812099,-13.09866 -1.946919,-26.26886 -0.73924,-39.45842 1.119173,-12.22297 3.368586,-24.26333 7.75774,-35.67291 3.838448,-9.97804 8.306453,-19.82151 13.586187,-29.10431 4.53283,-7.96957 10.55209,-15.10266 16.03175,-22.51863 1.70196,-2.30338 4.3657,-2.1285 6.761,0.23951 5.99025,5.92203 11.9062,11.91936 17.90476,17.83288 6.96271,6.86397 13.96409,13.68904 20.98683,20.49165 2.20538,2.13628 1.79641,4.12622 0.0576,6.28366 -8.45311,10.48761 -14.66156,22.22692 -18.12998,35.19918 -3.95125,14.77814 -5.12266,29.75015 -2.57828,45.06767 2.66581,16.04874 8.88464,30.41023 18.08698,43.63805 0.64772,0.9311 1.37235,1.81669 2.12982,2.66188 1.87815,2.09566 1.67876,3.99282 -0.31121,5.92072 -7.3544,7.12487 -14.67155,14.28815 -22.174,21.60766 m 10.17959,-168.7066 c -0.21372,-0.20659 -0.42743,-0.41317 -0.71365,-0.76839 0,0 -0.25858,-0.19986 -0.53129,-0.54693 -0.24489,-0.1586 -0.4898,-0.31721 -0.83966,-0.79878 -0.11672,-0.21314 -0.2941,-0.34423 -0.67194,-0.70089 -0.14988,-0.18057 -0.33941,-0.29626 -0.72382,-0.71562 -0.39946,-0.33834 -0.799,-0.67668 -1.4025,-1.37013 -0.70548,-0.62999 -1.41095,-1.25999 -2.22041,-2.01102 0,0 -0.15931,-0.031 -0.31403,-0.47251 -0.24552,-0.17501 -0.49105,-0.35002 -0.70141,-0.4858 0,0 0.0203,-0.0487 -0.16496,-0.44153 -0.41591,-0.39622 -0.83182,-0.79244 -1.32123,-1.34518 -0.0679,-0.0987 -0.15806,-0.16788 -0.52373,-0.58157 -0.46474,-0.37852 -0.92941,-0.75703 -1.54073,-1.48668 -0.47416,-0.41033 -0.94832,-0.82066 -1.52151,-1.46321 0,0 -0.23143,-0.10075 -0.49595,-0.5386 -0.43331,-0.1903 -0.86662,-0.3806 -1.32529,-0.56046 0,0 0.0161,-0.0215 0.007,-0.61911 -0.34022,-0.14395 -0.68044,-0.28791 -1.04253,-0.41508 0,0 0.0121,-0.0257 0.10497,-0.5278 -1.03857,-1.0288 -2.07714,-2.05761 -3.21329,-3.40801 -0.12032,-0.20928 -0.29959,-0.3333 -0.77173,-0.75857 -2.57008,-2.51375 -5.14015,-5.0275 -7.96366,-7.93398 -1.09055,-1.37136 -2.01504,-1.89894 -3.27909,-6.8e-4 -1.28421,1.92853 -2.97455,3.58243 -4.37191,5.44309 -0.27636,0.36799 -0.0297,1.12891 0.009,1.72279 0,0 -0.0129,-0.0341 -0.18134,-0.6089 -1.11928,1.45655 -2.23855,2.91309 -3.35782,4.36963 0.50016,0.22451 1.00032,0.44901 1.3578,0.76093 0,0 -0.19957,0.26543 -0.37963,-0.52644 -2.54614,0.33578 -3.12386,1.15012 -2.43272,3.20383 -0.11787,0.0627 -0.168,0.16029 -0.68666,-0.28328 -0.42185,0.80625 -0.8437,1.61248 -1.26555,2.41872 0.49797,-0.0282 0.99593,-0.0566 1.341,-0.0315 0,0 -0.17141,0.26307 -0.32824,-0.50979 -0.85984,0.46838 -1.92929,0.75402 -2.53244,1.44617 -1.00949,1.15843 -1.72144,2.57628 -2.80187,4.24313 -0.11008,0.41328 -0.22016,0.82657 -0.70443,1.54194 -2.41691,4.78692 -4.83384,9.57383 -7.536316,14.66345 -0.0932,0.25959 -0.186402,0.51918 -0.756076,0.97321 -0.693593,1.86642 -1.346061,3.74937 -2.08732,5.59666 -5.679756,14.15449 -9.109695,28.88812 -10.212286,44.04299 -1.241279,17.06109 -0.388593,34.06478 3.845319,51.10765 0.143881,0.30316 0.287764,0.60635 0.525825,1.47087 6.693778,25.76499 18.924624,48.53334 36.867534,68.7231 12.54172,-13.02397 24.81375,-25.76793 36.89013,-38.30867 -3.41262,-5.61619 -7.59322,-11.58232 -10.83729,-18.02051 -7.29888,-14.48525 -10.9534,-29.85401 -10.94607,-46.22736 0.007,-15.58917 2.72716,-30.48911 9.15264,-44.62692 2.57113,-5.65729 6.00144,-10.92394 9.37273,-16.68392 0.49228,-1.04856 0.98457,-2.09711 1.45353,-3.1722 0,0 0.0284,0.0212 0.44267,0.36821 1.02753,-1.20429 2.05502,-2.40857 3.58778,-4.20505 -1.50204,-0.44355 -2.415,-0.71315 -3.34799,-0.95124 0,0 0.0315,-0.0201 0.54724,-0.31798 -2.72639,-2.75568 -5.44021,-5.5242 -8.21275,-8.23265 -0.15419,-0.1506 -0.79383,0.19601 -1.2237,0.34392 0,0 0.0351,-0.0101 0.64069,-0.26112 -0.15196,-0.37509 -0.3039,-0.75019 -0.66179,-1.52225 z"
   id="path2"
   style="stroke-width:0.683812" />
<path
   fill="#37437f"
   opacity="1"
   stroke="none"
   d="m 200.34883,414.22573 c -16.44955,-4.94441 -31.20325,-12.63212 -44.6258,-22.89673 -3.2129,-2.45704 -6.38043,-4.97355 -9.56441,-7.46832 -3.46152,-2.71224 -3.70498,-4.66902 -0.61789,-7.82025 6.0529,-6.17862 12.26281,-12.20318 18.33211,-18.36596 6.38892,-6.48725 12.71789,-13.03425 19.01367,-19.61199 2.31732,-2.4211 4.53586,-2.39213 8.15068,0.0826 4.96401,3.39836 9.67768,7.44882 15.11078,9.81117 9.10574,3.95919 18.4735,8.01165 28.14171,9.78768 9.97918,1.83315 20.46622,1.51654 30.69792,1.16823 8.55296,-0.2911 16.75078,-3.04951 24.77871,-6.19767 9.70649,-3.80634 18.59974,-8.85164 26.77621,-15.31069 0.95694,-0.75591 3.79889,-0.63929 4.6398,0.20111 11.56138,11.55479 22.90697,23.32527 34.34603,35.00312 4.38666,4.47825 3.98906,6.36782 -1.28843,9.89775 -4.03094,2.69615 -7.38819,6.41011 -11.44985,9.04787 -6.89449,4.47742 -14.08371,8.50522 -21.20016,12.63399 -2.55494,1.48233 -5.13768,3.07257 -7.91364,3.99073 -11.17765,3.69697 -22.33177,7.53923 -33.69455,10.5801 -10.49427,2.80841 -21.37747,2.66094 -32.20383,2.43332 -8.63639,-0.18158 -17.29301,0.35236 -25.8015,-1.83911 -7.08772,-1.82556 -14.24044,-3.39891 -21.62756,-5.12693 m 42.42059,-52.57303 c -3.46874,-0.23843 -6.93749,-0.47683 -10.38546,-0.66104 0,0 0.0557,-0.0166 -0.13838,-0.51287 -16.74857,-4.17623 -32.39712,-10.66744 -43.99011,-20.83555 -14.48983,13.65834 -28.51594,26.87955 -42.82241,40.36508 4.25241,3.30958 7.89748,6.52321 11.90888,9.18457 6.85979,4.55111 13.7908,9.04058 20.97831,13.04109 11.23068,6.25079 23.40899,10.21744 35.87473,13.1044 3.18237,0.737 6.447,3.27759 10.01187,0.99547 0,0 -0.058,0.0122 0.036,0.53036 1.70979,0.31955 3.41963,0.63912 5.62551,1.15277 1.04689,0.0562 2.09378,0.11249 3.71063,0.46195 7.5873,0.1599 15.17483,0.43745 22.76184,0.42442 3.2382,-0.005 6.47527,-0.61775 10.12349,-0.84115 0.55305,-0.0859 1.1061,-0.17172 2.21515,-0.30974 2.04789,-0.30462 4.09587,-0.60927 6.54459,-0.85603 0.35197,-0.15801 0.70392,-0.31601 1.61143,-0.54445 2.07285,-0.33528 4.14577,-0.67057 6.48968,-0.9628 0.17709,-0.0774 0.30352,-0.20501 0.89005,-0.40716 0.97243,-0.27708 1.94486,-0.55413 3.38865,-0.78705 0.59025,-0.16123 1.18052,-0.32248 2.24183,-0.61548 3.36082,-0.94865 6.79926,-1.68513 10.06949,-2.88145 17.32312,-6.33719 33.55245,-14.69602 47.92927,-26.40177 2.76337,-2.24995 5.53817,-4.48594 8.88363,-7.19472 -13.26256,-12.46772 -26.16874,-24.6004 -39.29517,-36.94014 -11.91871,9.51261 -26.49052,16.51641 -43.30269,19.69199 -0.92605,1.48847 -1.85206,2.97692 -3.28863,4.51268 -0.51262,-0.002 -1.0253,-0.004 -1.84642,-0.33393 -0.42376,-0.14073 -0.84752,-0.28148 -1.21285,-0.81689 -0.23073,-2.41596 -1.63847,-0.90511 -3.24119,-0.92444 -7.06022,-0.14685 -14.1205,-0.2937 -21.77166,-0.63812 m 27.35994,-0.0684 c 0.14963,-0.0311 0.29924,-0.0622 0.4488,-0.0934 -0.0539,-0.1895 -0.10758,-0.37899 -0.16142,-0.56849 -0.11488,0.12923 -0.22969,0.25846 -0.28738,0.66185 z"
   id="path3"
   style="stroke-width:0.683812" />
<path
   fill="#384480"
   opacity="1"
   stroke="none"
   d="m 412.35695,204.83197 c 4.04144,11.77716 6.21973,23.63939 6.68117,35.79805 0.3188,8.4001 1.05452,16.85167 0.48206,25.20329 -0.98236,14.33182 -3.54941,28.41093 -8.4544,42.06172 -4.83865,13.46592 -11.49504,25.90444 -19.51134,37.65321 -2.97574,4.36129 -6.41394,8.41648 -9.77332,12.50263 -1.9679,2.39365 -4.43194,2.33116 -6.59776,0.17201 -12.01022,-11.97329 -24.02373,-23.94333 -36.05949,-35.89091 -0.96236,-0.95535 -2.16418,-1.66714 -3.14476,-2.6069 -1.7145,-1.64314 -1.50557,-4.9572 0.88584,-7.73577 9.26525,-10.7651 14.4586,-23.58158 18.34224,-36.93855 3.15241,-10.84215 2.85966,-22.11286 2.5436,-33.29302 -0.27977,-9.89771 -2.83249,-19.26334 -6.35663,-28.51944 -3.80283,-9.98822 -8.93167,-19.06527 -15.4967,-27.44312 -0.6306,-0.80474 -0.42392,-3.2484 0.32691,-4.00452 9.52497,-9.5921 19.23581,-18.9992 28.86294,-28.49033 2.42963,-2.39528 4.68673,-4.96506 7.10317,-7.37433 2.57763,-2.56997 4.98503,-2.55096 7.27812,0.17619 8.24705,9.80817 15.94283,20.07558 21.60057,31.58028 4.27692,8.69683 7.50165,17.91129 11.28778,27.14951 m -52.37277,58.12886 c -2.62188,19.90643 -9.89969,37.84329 -21.9351,52.20489 13.72669,14.25762 27.15872,28.20918 40.65002,42.22236 10.86623,-12.5987 19.83512,-26.20831 26.42882,-41.88104 27.75595,-66.12974 4.71668,-132.91221 -29.35038,-169.05544 -12.27417,12.76127 -24.54538,25.51952 -36.81657,38.27775 -0.71064,-0.47889 -0.58352,-0.17528 -0.39608,0.0849 0.72807,1.01059 1.47696,2.00616 2.21521,3.00946 11.13853,15.13793 17.64,32.10668 19.31579,50.77922 0.64847,7.22611 0.19697,14.55099 0.11112,22.33008 0.005,0.51637 0.011,1.03272 -0.22283,2.02786 z"
   id="path4"
   style="stroke-width:0.683812" />
<path
   fill="#394481"
   opacity="1"
   stroke="none"
   d="m 263.06845,81.993167 c 5.17138,0.537996 10.00069,1.285138 14.85726,1.572377 11.75719,0.695383 22.70327,4.774867 33.54417,8.65389 8.35074,2.987986 16.2503,7.54001 23.86712,12.188846 7.09223,4.32863 13.58758,9.64809 20.26474,14.63965 3.81061,2.84865 3.85617,4.85145 0.51204,8.19927 -9.01466,9.02449 -18.06169,18.01685 -27.03485,27.08241 -3.59654,3.63359 -7.09802,7.36714 -10.51833,11.1672 -2.02782,2.25284 -3.98224,2.11699 -6.29538,0.54443 -5.42506,-3.68815 -10.63756,-7.81123 -16.42471,-10.81701 -9.67974,-5.02751 -19.87026,-8.5151 -30.87551,-10.13592 -12.19984,-1.79676 -24.26874,-1.82952 -36.19897,0.43031 -13.09485,2.48042 -25.37168,7.53871 -36.41025,15.23417 -2.21152,1.54178 -4.37126,3.16126 -6.50978,4.80365 -1.92552,1.4788 -3.50512,1.4487 -5.31713,-0.39637 -11.63724,-11.84982 -23.3647,-23.61101 -35.04247,-35.42113 -2.77651,-2.80795 -2.85423,-5.1862 0.0595,-7.50836 5.66876,-4.51802 11.29249,-9.13734 17.28951,-13.18973 15.15287,-10.239348 31.70851,-17.434294 49.36879,-22.238945 14.79653,-4.025522 29.84936,-5.048922 45.06863,-4.813258 1.82159,0.02821 3.64398,0.0043 5.79572,0.0045 m -23.90553,59.371083 c 6.06646,0.004 12.13357,0.0517 18.19842,-0.0449 0.69715,-0.0111 1.38157,-0.82403 2.50903,-1.19809 0.86893,0.0919 1.73783,0.18371 1.85046,0.16854 0.59752,0.62861 1.13108,1.72435 1.80219,1.81638 11.68656,1.60249 22.89688,4.8435 33.24787,10.47195 6.4388,3.50115 12.43976,7.80788 16.93212,10.66765 14.24922,-13.40051 28.36544,-26.67593 42.50212,-39.97061 -73.37418,-63.988724 -167.44957,-39.535725 -210.64456,3.22721 12.89099,12.14443 25.78054,24.28749 38.83343,36.58447 12.27534,-9.89193 27.29443,-16.7631 44.40567,-20.13761 3.23968,-0.53561 6.47932,-1.07122 10.36325,-1.58501 z"
   id="path5"
   style="stroke-width:0.683812" />
<path
   fill="#374483"
   opacity="1"
   stroke="none"
   d="m 194.76354,219.38501 c 7.64852,-12.64069 18.10941,-21.91691 31.26966,-27.80285 5.08681,-2.27507 10.87799,-3.7349 16.43257,-4.0421 10.96466,-0.60639 22.0983,-1.1208 32.77784,2.42307 11.35178,3.76694 20.84868,10.52641 28.4212,19.66416 3.93331,4.74635 7.67137,9.98417 10.0314,15.61481 2.48229,5.92239 4.04983,12.52013 4.49923,18.92925 0.56055,7.99425 0.37586,16.23087 -0.93054,24.12381 -2.26061,13.65737 -10.29052,24.17917 -20.42875,33.31185 -11.56382,10.4169 -24.96292,15.45117 -40.51529,15.5625 -9.61553,0.0688 -19.23192,0.002 -28.15759,-3.68817 -5.87953,-2.43072 -11.52135,-5.8396 -16.61786,-9.67651 -9.98781,-7.51925 -17.40694,-17.27926 -21.67122,-29.10991 -1.41723,-3.932 -2.4004,-8.26047 -2.4123,-12.41105 -0.0276,-9.62644 0.0723,-19.33058 1.30097,-28.85083 0.61839,-4.7918 3.81111,-9.25123 6.00068,-14.04803 M 314.12948,267.986 c 2.66369,-8.20756 2.28845,-16.7838 1.32212,-24.99429 -1.81624,-15.43221 -9.55983,-27.86886 -21.34738,-38.23365 -15.03442,-13.21985 -32.55017,-16.2893 -51.46232,-14.11257 -15.80999,1.81966 -28.1982,9.93412 -38.72994,21.80159 -12.75827,14.3764 -15.57027,31.34592 -13.6507,49.3226 1.80127,16.86857 11.02186,29.93304 24.20227,40.34484 14.33994,11.32781 30.9485,13.52599 48.33721,11.67291 12.13751,-1.29345 22.71154,-6.43668 31.88476,-14.71187 9.34901,-8.43377 16.41426,-18.11341 19.44398,-31.08956 z"
   id="path6"
   style="stroke-width:0.683812" />
<path
   fill="#3b4a97"
   opacity="1"
   stroke="none"
   d="m 88.556729,288.4379 c -0.143881,-0.30317 -0.287764,-0.60636 -0.200076,-1.04566 0.592598,-0.34585 1.291324,-0.61886 1.26561,-0.7561 -0.78653,-4.19867 -1.760781,-8.36466 -2.458312,-12.57679 -0.711551,-4.29674 -1.455199,-8.62327 -1.65407,-12.9611 -0.260431,-5.68064 -0.397881,-11.42193 0.124643,-17.07116 0.885523,-9.57379 1.610367,-19.25988 3.738965,-28.59391 2.152303,-9.43796 5.927089,-18.50572 9.149801,-27.86125 0.297277,-0.64559 0.435889,-1.16559 0.687136,-1.82356 0.481886,-0.97082 0.851144,-1.80368 1.369674,-2.79421 0.31344,-0.70804 0.47759,-1.2584 0.82373,-1.95424 3.34248,-5.53494 6.50299,-10.92441 9.6635,-16.31388 0,0 0.17141,-0.26307 0.32802,-0.58319 0.20581,-0.71048 0.25501,-1.10084 0.3042,-1.49121 -0.0176,-0.13234 0.0325,-0.22989 0.49425,-0.33049 0.98554,-0.8166 1.62723,-1.59535 2.26893,-2.37411 0,0 0.19957,-0.26543 0.38728,-0.53484 0.78539,-1.60837 1.38307,-2.94733 1.98075,-4.2863 0,0 0.0129,0.0341 0.22996,0.11676 1.10507,-0.74559 1.97718,-1.59182 2.88495,-2.39784 1.23997,-1.101 2.50711,-2.1714 3.83998,-3.11448 0.20529,0.32257 0.37549,0.44669 0.71016,0.71312 2.34899,2.37906 4.57579,4.55781 6.89564,6.91761 0.69363,0.71974 1.2942,1.25844 2.0459,2.04988 1.0687,0.56401 1.98627,0.87528 2.90384,1.18654 0,-1e-5 -0.0121,0.0256 -0.1407,0.38929 0.30749,0.45877 0.7436,0.5539 1.17971,0.64903 0,0 -0.016,0.0215 -0.32354,0.11787 0.60742,1.27621 1.52235,2.45604 2.53332,3.83402 1.01363,0.49292 1.6465,3.51171 2.91045,0.49243 0.11289,0.0398 0.20319,0.10904 0.20669,0.22082 -0.0644,0.0131 -0.26135,0.15003 -0.56366,0.15642 0.0341,0.77364 0.37024,1.54089 0.76977,2.46495 0.19056,0.36186 0.37323,0.48402 0.68902,0.67479 0.2179,0.3398 0.39888,0.47242 0.70161,0.74916 0.72743,0.76785 1.37376,1.33592 2.0983,2.08304 0.46997,0.51566 0.86171,0.85229 1.34162,1.35739 0.47358,0.49087 0.85901,0.81327 1.37193,1.34914 0.64635,0.28672 1.16535,0.35998 1.94013,0.39197 0.28668,-0.21131 0.31745,-0.38139 0.34822,-0.55145 0,0 0.25858,0.19986 0.0493,0.16373 -0.42002,0.18818 -0.63074,0.41249 -0.90741,0.94759 0.58486,0.75059 1.23572,1.19043 1.88653,1.63027 0,0 -0.0351,0.0101 -0.12029,0.22654 2.94517,2.80103 5.97556,5.38556 9.00589,7.9701 0,0 -0.0315,0.0201 -0.21207,0.24005 -0.27825,1.67642 -0.37589,3.13289 -0.47353,4.58936 0,0 -0.0284,-0.0212 -0.13972,-0.27661 -1.00718,0.73277 -1.90304,1.72091 -2.98868,2.84899 -2.54978,4.00995 -5.17889,7.74348 -7.2224,11.77403 -8.17005,16.11389 -11.45552,33.23846 -11.30872,51.32073 0.18263,22.49408 6.91427,42.59687 19.99116,60.68748 1.63499,2.26179 1.43914,3.48387 -0.5014,5.36794 -10.20141,9.90423 -20.25504,19.96064 -30.37275,29.95129 -0.774,0.7643 -1.64691,1.42838 -2.87521,2.48397 -4.53308,-6.12786 -9.2987,-11.64193 -12.99939,-17.79662 -5.17249,-8.60249 -9.91872,-17.5121 -14.140898,-26.61798 -2.888876,-6.2304 -4.543778,-13.02979 -6.823949,-19.54906 -0.423357,-1.21043 -0.323904,-3.26808 -2.693771,-2.46026 m 48.796968,-26.37017 c -0.38062,-14.56342 0.42181,-28.94193 4.92319,-42.99999 3.33685,-10.42103 8.41062,-19.85694 14.53967,-28.79394 1.40735,-2.05209 1.0529,-3.39696 -0.57772,-5.01608 -10.26464,-10.19257 -20.49839,-20.41681 -30.67161,-30.7006 -1.70418,-1.72271 -3.05678,-1.73425 -4.48113,0.10373 -1.30533,1.68441 -2.643,3.35659 -3.79542,5.14443 -4.3553,6.75665 -9.09606,13.31636 -12.85572,20.39447 -7.285908,13.71686 -12.163799,28.35307 -14.89407,43.68118 -2.751596,15.44779 -2.992752,30.92275 -0.730803,46.44634 2.236273,15.34732 6.467381,30.12091 13.139773,44.11959 5.52184,11.58482 11.85457,22.71012 19.99823,32.72406 3.45472,4.24818 3.94689,4.34766 7.79889,0.56306 8.92873,-8.77248 17.91846,-17.48339 26.76454,-26.33818 0.63723,-0.63788 0.81399,-2.52413 0.34884,-3.34403 -2.458,-4.33217 -5.45571,-8.36844 -7.77808,-12.76525 -7.02548,-13.3006 -10.99549,-27.49668 -11.72861,-43.21879 z"
   id="path7"
   style="stroke-width:0.683812" />
<path
   fill="#d9deeb"
   opacity="1"
   stroke="none"
   d="m 88.603815,288.71857 c 2.322781,-1.08849 2.223328,0.96916 2.646685,2.17959 2.280171,6.51927 3.935073,13.31866 6.823949,19.54906 4.222181,9.10588 8.968401,18.01549 14.140891,26.61798 3.70069,6.15469 8.46632,11.66876 12.9994,17.79662 1.2283,-1.05559 2.10121,-1.71967 2.87521,-2.48397 10.1177,-9.99065 20.17133,-20.04706 30.37275,-29.95129 1.94054,-1.88407 2.13638,-3.10615 0.5014,-5.36794 -13.07689,-18.09061 -19.80854,-38.1934 -19.99116,-60.68748 -0.14681,-18.08227 3.13866,-35.20684 11.30872,-51.32073 2.04351,-4.03055 4.67262,-7.76408 7.3673,-11.55868 0.61298,0.27655 0.89134,0.47766 1.16965,0.67875 -3.03929,5.44447 -6.4696,10.71112 -9.04074,16.36841 -6.42548,14.13781 -9.14569,29.03775 -9.15266,44.62691 -0.007,16.37336 3.64721,31.74212 10.94609,46.22737 3.24408,6.43819 7.42467,12.40432 10.8373,18.02051 -12.07639,12.54074 -24.34844,25.2847 -36.89016,38.30867 -17.94291,-20.18976 -30.173753,-42.95811 -36.914625,-69.00378 z"
   id="path8"
   style="stroke-width:0.683812" />
<path
   fill="#e0e5f0"
   opacity="1"
   stroke="none"
   d="m 110.98892,164.29961 c -3.0821,5.7759 -6.24261,11.16537 -9.77118,16.82652 -0.50769,0.84302 -0.6473,1.41437 -0.78692,1.98571 -0.36925,0.83285 -0.738508,1.66571 -1.38333,2.76267 -0.411333,0.78374 -0.5471,1.30338 -0.682873,1.82301 -3.064039,9.22994 -6.838825,18.2977 -8.991128,27.73566 -2.128598,9.33403 -2.853442,19.02012 -3.738965,28.59391 -0.522524,5.64923 -0.385074,11.39052 -0.124643,17.07116 0.198871,4.33783 0.942519,8.66436 1.65407,12.9611 0.697531,4.21213 1.671782,8.37812 2.458312,12.57679 0.0257,0.13724 -0.673012,0.41025 -1.270054,0.58329 -4.461037,-16.73392 -5.313723,-33.73761 -4.072444,-50.7987 1.102591,-15.15487 4.53253,-29.8885 10.212286,-44.043 0.741259,-1.84729 1.393727,-3.73023 2.480321,-5.83616 0.478216,-0.50515 0.563424,-0.77076 0.648635,-1.0364 2.416923,-4.78692 4.833843,-9.57383 7.602223,-14.66332 0.43304,-0.73424 0.51463,-1.16589 0.59622,-1.59756 0.83717,-1.30866 1.54912,-2.72651 2.55861,-3.88494 0.60316,-0.69215 1.67261,-0.97779 2.61086,-1.05974 z"
   id="path9"
   style="stroke-width:0.683812" />
<path
   fill="#e0e5f0"
   opacity="1"
   stroke="none"
   d="m 161.57598,185.72564 c -3.28825,-2.43559 -6.31864,-5.02012 -9.25572,-7.83752 0.50699,-0.34805 1.14664,-0.69466 1.30083,-0.54406 2.77253,2.70845 5.48636,5.47697 7.95489,8.38158 z"
   id="path10"
   style="stroke-width:0.683812" />
<path
   fill="#e0e5f0"
   opacity="1"
   stroke="none"
   d="m 131.29839,157.14002 c -2.22679,-2.17875 -4.45359,-4.3575 -6.80438,-6.93614 -0.13623,-0.66528 -0.14846,-0.93067 -0.0509,-1.35593 0.17178,-0.2734 0.23372,-0.38693 0.29566,-0.50045 2.57007,2.51374 5.14015,5.02749 7.7113,7.91699 -0.3832,0.54234 -0.76747,0.70893 -1.15174,0.87553 z"
   id="path11"
   style="stroke-width:0.683812" />
<path
   fill="#e0e5f0"
   opacity="1"
   stroke="none"
   d="m 123.70826,149.5499 c -1.25548,1.08352 -2.52262,2.15392 -3.76259,3.25492 -0.90777,0.80602 -1.77988,1.65225 -2.90172,2.39075 -0.23928,-0.6695 -0.48591,-1.43042 -0.20956,-1.7984 1.39737,-1.86066 3.0877,-3.51457 4.37192,-5.4431 1.26404,-1.89825 2.18853,-1.37067 3.4058,0.19706 0.0648,0.30989 0.003,0.42342 -0.2968,0.75622 -0.40181,0.32456 -0.52493,0.46565 -0.60705,0.64255 z"
   id="path12"
   style="stroke-width:0.683812" />
<path
   fill="#e0e5f0"
   opacity="1"
   stroke="none"
   d="m 160.83964,190.87748 c -0.10954,-1.62995 -0.0119,-3.08642 0.2764,-4.77859 1.10355,0.0339 2.01651,0.30349 3.51854,0.74704 -1.53276,1.79648 -2.56023,3.00076 -3.79494,4.03155 z"
   id="path13"
   style="stroke-width:0.683812" />
<path
   fill="#e0e5f0"
   opacity="1"
   stroke="none"
   d="m 136.38763,160.30641 c -0.96401,-0.0602 -1.88158,-0.37145 -2.958,-1.20416 -0.14299,-1.05874 -0.12713,-1.59604 -0.11126,-2.13334 1.03857,1.0288 2.07713,2.05761 3.06926,3.3375 z"
   id="path14"
   style="stroke-width:0.683812" />
<path
   fill="#e0e5f0"
   opacity="1"
   stroke="none"
   d="m 116.74654,154.79847 c -0.51346,1.6264 -1.11114,2.96536 -1.82519,4.53002 -0.61653,0.001 -1.11669,-0.2233 -1.61684,-0.4478 1.11927,-1.45655 2.23854,-2.91309 3.44203,-4.08222 z"
   id="path15"
   style="stroke-width:0.683812" />
<path
   fill="#e0e5f0"
   opacity="1"
   stroke="none"
   d="m 158.9846,194.01273 c -0.4443,-0.0434 -0.72266,-0.24445 -1.1458,-0.66091 0.7509,-1.20352 1.64676,-2.19166 2.66557,-2.91117 -0.3692,1.31721 -0.86149,2.36576 -1.51977,3.57208 z"
   id="path16"
   style="stroke-width:0.683812" />
<path
   fill="#e0e5f0"
   opacity="1"
   stroke="none"
   d="m 146.32401,172.21026 c -0.64639,-0.56807 -1.29272,-1.13614 -1.85669,-2.09835 0.35812,-0.59544 0.63396,-0.79673 0.90973,-0.99802 0.70543,0.62999 1.4109,1.25999 2.10159,2.24649 -0.39478,0.52097 -0.77471,0.68543 -1.15463,0.84988 z"
   id="path17"
   style="stroke-width:0.683812" />
<path
   fill="#e0e5f0"
   opacity="1"
   stroke="none"
   d="m 139.49392,165.34955 c -0.91491,-1.17983 -1.82984,-2.35966 -2.42458,-3.64109 0.7535,0.0887 1.18682,0.27901 1.63807,0.77078 0.20431,0.35744 0.39066,0.41339 0.57703,0.46935 0.47416,0.41033 0.94832,0.82066 1.38089,1.58309 -0.4182,0.50736 -0.79479,0.66262 -1.17141,0.81787 z"
   id="path18"
   style="stroke-width:0.683812" />
<path
   fill="#d9deeb"
   opacity="1"
   stroke="none"
   d="m 139.58998,165.5477 c 0.28056,-0.3534 0.65715,-0.50866 1.14863,-0.84046 0.57963,0.20199 1.04431,0.5805 1.63541,1.14596 -1.13754,3.20621 -1.77041,0.18742 -2.78404,-0.3055 z"
   id="path19"
   style="stroke-width:0.683812" />
<path
   fill="#d9deeb"
   opacity="1"
   stroke="none"
   d="m 146.40216,172.38931 c 0.30177,-0.3435 0.6817,-0.50796 1.17847,-0.85137 0.5163,0.15938 0.91583,0.49772 1.27218,1.19662 -0.42777,0.52158 -0.81249,0.68262 -1.1972,0.84365 -0.39174,-0.33661 -0.78348,-0.67324 -1.25345,-1.1889 z"
   id="path20"
   style="stroke-width:0.683812" />
<path
   fill="#d9deeb"
   opacity="1"
   stroke="none"
   d="m 133.26958,156.80811 c 0.0329,0.6981 0.0171,1.2354 0.009,2.04141 -0.59285,-0.27001 -1.19342,-0.80871 -1.88705,-1.52845 0.29121,-0.34765 0.67549,-0.51424 1.17564,-0.86334 0.35411,-0.14372 0.53338,-0.0197 0.70249,0.35038 z"
   id="path21"
   style="stroke-width:0.683812" />
<path
   fill="#e0e5f0"
   opacity="1"
   stroke="none"
   d="m 114.3727,159.51111 c -0.55167,1.17469 -1.19336,1.95344 -2.09244,2.76081 -1.12145,-2.00663 -0.54372,-2.82097 2.09244,-2.76081 z"
   id="path22"
   style="stroke-width:0.683812" />
<path
   fill="#e0e5f0"
   opacity="1"
   stroke="none"
   d="m 147.74378,173.7467 c 0.29654,-0.32952 0.68126,-0.49056 1.1867,-0.82787 0.34985,-0.12547 0.53938,-0.01 0.67534,0.51655 -0.21517,0.71283 -0.41635,1.07992 -0.6176,1.44699 -0.38543,-0.3224 -0.77086,-0.6448 -1.24444,-1.13567 z"
   id="path23"
   style="stroke-width:0.683812" />
<path
   fill="#e0e5f0"
   opacity="1"
   stroke="none"
   d="m 143.52462,169.40559 c -0.23816,-0.0393 -0.42083,-0.16141 -0.62315,-0.81292 -0.20184,-1.02489 -0.32874,-1.60328 -0.4557,-2.18169 0,0 0.19708,-0.13691 0.2981,-0.0718 0.51693,0.46135 0.93284,0.85757 1.28186,1.58564 -0.21165,0.71482 -0.35642,1.09777 -0.50111,1.48073 z"
   id="path24"
   style="stroke-width:0.683812" />
<path
   fill="#d9deeb"
   opacity="1"
   stroke="none"
   d="m 143.60225,169.55711 c 0.0672,-0.53448 0.21183,-0.91743 0.5161,-1.43583 0.15944,-0.13546 0.13923,-0.0867 0.22916,0.0877 0.31537,0.36726 0.54081,0.56009 0.76619,0.75293 0,0 0.15932,0.031 0.21131,0.0915 -0.22373,0.2618 -0.49957,0.46309 -0.93873,0.85876 -0.38515,0.11739 -0.56613,-0.0153 -0.78403,-0.35503 z"
   id="path25"
   style="stroke-width:0.683812" />
<path
   fill="#d9deeb"
   opacity="1"
   stroke="none"
   d="m 149.11571,175.09584 c 0.0738,-0.58054 0.27494,-0.94763 0.56001,-1.50664 0.32186,-0.14292 0.49924,-0.0118 0.72416,0.72955 0.20548,0.7556 0.30276,0.98296 0.40011,1.21031 -0.51893,-0.0732 -1.03793,-0.1465 -1.68428,-0.43322 z"
   id="path26"
   style="stroke-width:0.683812" />
<path
   fill="#e0e5f0"
   opacity="1"
   stroke="none"
   d="m 152.73523,177.5524 c -0.95358,-0.31429 -1.60445,-0.75413 -1.89152,-1.30381 0.82207,-0.0556 1.28032,-0.001 1.73858,0.053 0.15189,0.3751 0.30383,0.75019 0.15294,1.25083 z"
   id="path27"
   style="stroke-width:0.683812" />
<path
   fill="#e0e5f0"
   opacity="1"
   stroke="none"
   d="m 111.43142,162.32369 c 0.21894,0.67832 0.16974,1.06868 0.0404,1.75248 -0.57813,0.32172 -1.07609,0.35 -1.57405,0.37828 0.42185,-0.80624 0.84369,-1.61248 1.53367,-2.13076 z"
   id="path28"
   style="stroke-width:0.683812" />
<path
   fill="#d9deeb"
   opacity="1"
   stroke="none"
   d="m 152.47929,176.10308 c -0.35526,0.14421 -0.81351,0.0899 -1.56957,-0.16527 -0.0871,-0.42523 0.1236,-0.64954 0.57986,-0.7634 0.45927,0.31703 0.67299,0.52361 0.98971,0.92867 z"
   id="path29"
   style="stroke-width:0.683812" />
<path
   fill="#d9deeb"
   opacity="1"
   stroke="none"
   d="m 105.69782,169.42339 c 0.04,0.25257 -0.0416,0.68422 -0.28751,1.26741 -0.0542,-0.26175 0.0558,-0.67504 0.28751,-1.26741 z"
   id="path30"
   style="stroke-width:0.683812" />
<path
   fill="#e0e5f0"
   opacity="1"
   stroke="none"
   d="m 151.05584,175.48781 c -0.3532,-0.1861 -0.45048,-0.41346 -0.60345,-1.00758 0.18916,-0.20815 0.43406,-0.0496 0.81531,0.28259 0.10559,0.3436 0.0748,0.51368 -0.21186,0.72499 z"
   id="path31"
   style="stroke-width:0.683812" />
<path
   fill="#d9deeb"
   opacity="1"
   stroke="none"
   d="m 97.478226,185.65651 c 0.05755,0.1143 -0.02763,0.37991 -0.267617,0.78783 -0.06156,-0.11729 0.03163,-0.37688 0.267617,-0.78783 z"
   id="path32"
   style="stroke-width:0.683812" />
<path
   fill="#e0e5f0"
   opacity="1"
   stroke="none"
   d="m 137.37591,161.29701 c -0.43182,0.20367 -0.86793,0.10854 -1.16449,-0.35863 0.47978,-0.22809 0.81999,-0.0841 1.16449,0.35863 z"
   id="path33"
   style="stroke-width:0.683812" />
<path
   fill="#e0e5f0"
   opacity="1"
   stroke="none"
   d="m 145.03631,168.74112 c -0.14799,0.028 -0.37343,-0.16489 -0.70635,-0.55176 0.13798,-0.019 0.3835,0.15597 0.70635,0.55176 z"
   id="path34"
   style="stroke-width:0.683812" />
<path
   fill="#d9deeb"
   opacity="1"
   stroke="none"
   d="m 139.23492,162.83249 c -0.13685,0.0601 -0.3232,0.004 -0.39525,-0.13433 0.11432,-0.0825 0.34574,0.0182 0.39525,0.13433 z"
   id="path35"
   style="stroke-width:0.683812" />
<path
   fill="#2540cc"
   opacity="1"
   stroke="none"
   d="m 269.30362,364.3597 c 0.51262,0.002 1.0253,0.004 2.07137,-3.8e-4 3.52649,-0.64275 6.54293,-1.18566 9.50848,-1.9309 12.75862,-3.20623 24.45295,-8.74533 35.22432,-16.26676 1.54265,-1.07721 2.79137,-0.98672 4.18922,0.42683 9.12954,9.23171 18.30563,18.41765 27.51249,27.57231 2.0527,2.0411 1.8378,3.55262 -0.45801,5.25138 -10.91551,8.07686 -22.08206,15.75452 -34.58739,21.19964 -6.16776,2.68557 -12.44395,5.15476 -18.78762,7.39139 -4.0193,1.41713 -8.22351,2.36098 -12.39787,3.27463 -6.14307,1.34455 -12.28841,3.08207 -18.51489,3.54341 -8.33374,0.61741 -16.74661,0.2463 -25.12433,0.16947 -11.08079,-0.10162 -21.83596,-2.5657 -32.20993,-6.02496 -9.84786,-3.28383 -19.59841,-7.2421 -28.75484,-12.1038 -8.1255,-4.31431 -15.39653,-10.24747 -22.99995,-15.53057 -1.94239,-1.34957 -1.7427,-2.79425 -0.0532,-4.46813 10.27529,-10.17981 20.49884,-20.41235 30.67764,-30.68872 1.80259,-1.81983 3.06909,-1.62818 5.24682,-0.28006 6.34427,3.92739 12.814,7.71694 19.51236,10.99219 10.41431,5.09223 21.63909,7.51617 33.15982,8.12125 7.72224,0.4056 15.48373,0.0976 23.22699,0.0308 1.18801,-0.0102 2.37236,-0.4421 3.5584,-0.67896 m 52.6482,29.10104 c 8.41056,-4.86326 16.85881,-9.67317 23.7597,-16.24031 -0.0501,-0.60654 -0.0145,-0.76154 -0.0748,-0.82414 -8.74442,-9.07651 -17.4717,-18.17006 -26.31115,-27.15314 -0.49215,-0.5001 -2.19762,-0.49369 -2.86264,-0.0343 -13.6049,9.39909 -28.49547,15.20982 -44.9479,17.45606 -13.652,1.86391 -27.23007,1.74055 -40.70033,-0.5582 -14.60017,-2.49158 -28.30888,-7.64925 -40.3588,-16.55337 -2.21977,-1.64022 -3.69393,-1.62992 -5.74587,0.48175 -8.81299,9.06941 -17.82952,17.94087 -26.75902,26.89728 -0.77054,0.77283 -1.44686,1.63959 -2.19733,2.49739 0.57652,0.70482 0.86075,1.2354 1.29925,1.55244 1.10015,0.7954 2.32471,1.42231 3.40369,2.24263 12.6743,9.63571 26.59968,16.79177 41.69187,21.90674 15.61485,5.29215 31.60061,8.19131 48.0344,8.38701 5.6404,0.0672 11.3107,-0.74422 16.93457,-1.42491 4.93106,-0.59684 9.95299,-1.10342 14.69162,-2.48459 8.3126,-2.42282 16.54195,-5.22113 24.60695,-8.3723 5.21685,-2.03837 10.07932,-4.98438 15.5358,-7.77607 z"
   id="path36"
   style="stroke-width:0.683812" />
<path
   fill="#394896"
   opacity="1"
   stroke="none"
   d="m 269.14934,364.19595 c -1.03176,0.40061 -2.21611,0.83249 -3.40412,0.84271 -7.74326,0.0668 -15.50475,0.37486 -23.22699,-0.0308 -11.52073,-0.60508 -22.74551,-3.02901 -33.15982,-8.12124 -6.69836,-3.27525 -13.16809,-7.0648 -19.51236,-10.99219 -2.17773,-1.34812 -3.44428,-1.53978 -5.24682,0.28006 -10.1788,10.27637 -20.40235,20.50891 -30.67764,30.68871 -1.68962,1.67388 -1.88931,3.11856 0.0532,4.46814 7.60342,5.2831 14.87445,11.21626 22.99995,15.53056 9.15643,4.86171 18.90698,8.81998 28.75484,12.1038 10.37397,3.45926 21.12914,5.92335 32.20993,6.02496 8.37772,0.0768 16.79059,0.44795 25.12434,-0.16946 6.22647,-0.46135 12.37181,-2.19887 18.51489,-3.54341 4.17435,-0.91365 8.37856,-1.85751 12.39786,-3.27464 6.34367,-2.23662 12.61986,-4.70582 18.78762,-7.39139 12.50533,-5.44511 23.67188,-13.12278 34.58739,-21.19963 2.29581,-1.69877 2.51071,-3.21028 0.45801,-5.25139 -9.20686,-9.15465 -18.38295,-18.34059 -27.51249,-27.5723 -1.39785,-1.41355 -2.64657,-1.50404 -4.18922,-0.42683 -10.77137,7.52143 -22.4657,13.06053 -35.22432,16.26675 -2.96555,0.74525 -5.98199,1.28816 -9.25324,1.90726 0.64788,-1.50535 1.57388,-2.9938 2.58344,-4.2047 1.84789,0.38152 3.7171,0.91858 5.36008,0.52079 13.05793,-3.16162 25.12472,-8.56379 35.84054,-16.73625 2.3297,-1.77676 3.79926,-1.8884 5.97501,0.38347 9.84244,10.27712 19.88832,20.35929 29.84715,30.52523 0.68027,0.69443 1.24714,1.50006 1.99477,2.4097 -17.63304,15.40782 -37.26622,26.51008 -59.49578,33.28103 -0.33646,0.0827 -0.50078,0.18439 -0.89567,0.35056 -5.09389,1.28536 -9.9287,2.55243 -14.97959,3.76211 -0.91029,0.0918 -1.60447,0.24103 -2.55115,0.44037 -0.59067,0.10339 -0.92887,0.15665 -1.45875,0.1756 -0.4097,0.0924 -0.62781,0.21898 -1.12634,0.31824 -1.79377,0.13503 -3.30704,0.29744 -4.94644,0.4448 -0.28577,0.0683 -0.39108,0.19639 -0.74402,0.40653 -6.84156,0.28833 -13.38207,0.76332 -19.92018,0.73227 -7.65585,-0.0364 -15.30968,-0.51342 -22.96434,-0.79928 0,-2e-5 0.058,-0.0123 -1.8e-4,-0.26047 -6.15012,-1.7663 -12.30406,-3.07388 -18.32212,-4.84378 -15.43031,-4.53808 -29.86851,-11.29121 -43.14385,-20.38533 -4.8762,-3.3404 -9.42398,-7.16057 -15.0743,-11.49233 2.09192,-1.61 3.68206,-2.57019 4.94898,-3.85033 10.79571,-10.90785 21.55033,-21.85663 32.2668,-32.84237 1.47601,-1.51311 2.73376,-1.24627 4.15203,-0.10717 11.81556,9.48997 25.43258,15.16717 39.99768,18.78091 1.05941,0.26283 2.30597,-0.22918 3.46554,-0.37024 0,0 -0.0557,0.0166 -0.043,0.25662 2.47617,0.7996 4.93955,1.35918 7.6368,2.04549 1.30797,0.14534 2.38207,0.16393 3.76499,0.21494 1.56079,0.0383 2.81392,0.0811 4.06465,0.0436 5.77968,-0.17308 11.55871,-0.3685 17.48123,-0.38185 0.88869,0.26806 1.63409,0.36206 2.37955,0.45604 0.42376,0.14075 0.84752,0.2815 1.4255,0.58602 z"
   id="path37"
   style="stroke-width:0.683812" />
<path
   fill="#d9ddeb"
   opacity="1"
   stroke="none"
   d="m 224.19591,416.60519 c 7.60771,0.0268 15.26153,0.50388 22.91739,0.54023 6.5381,0.031 13.07861,-0.44394 20.03016,-0.76411 0.55678,-0.13149 0.67275,-0.22835 0.76011,-0.35962 1.51333,-0.16242 3.02659,-0.32484 5.00582,-0.47064 0.68808,-0.08 0.91033,-0.17656 1.13251,-0.27315 0.33826,-0.0533 0.67646,-0.10653 1.48363,-0.21246 1.16286,-0.16192 1.8568,-0.27118 2.55071,-0.38043 4.83483,-1.26708 9.66964,-2.53415 14.90921,-3.84241 0.59819,-0.0981 0.76113,-0.20267 0.8935,-0.3548 22.08605,-6.74381 41.71923,-17.84607 59.35227,-33.25388 -0.74763,-0.90965 -1.31445,-1.71528 -1.99477,-2.4097 -9.95883,-10.16595 -20.00468,-20.24811 -29.84715,-30.52523 -2.17576,-2.27187 -3.64531,-2.16023 -5.97501,-0.38348 -10.71582,8.17246 -22.78261,13.57463 -35.84055,16.73626 -1.64297,0.39779 -3.51218,-0.13927 -5.10346,-0.45386 16.47206,-3.52009 31.04386,-10.52389 42.96258,-20.0365 13.12643,12.33974 26.0326,24.47242 39.29516,36.94014 -3.34546,2.70878 -6.12025,4.94477 -8.88363,7.19472 -14.37682,11.70575 -30.60614,20.06458 -47.92927,26.40177 -3.27023,1.19632 -6.70866,1.9328 -10.54353,2.9272 -1.06244,0.20568 -1.65076,0.36561 -2.23914,0.52556 -0.97243,0.27709 -1.94487,0.55414 -3.29327,0.8746 -0.53452,0.10313 -0.67087,0.19556 -0.78507,0.32071 -2.07291,0.3353 -4.14583,0.67059 -6.69376,1.03282 -0.82907,0.17118 -1.18311,0.31541 -1.53718,0.45963 -2.0479,0.30463 -4.09587,0.60928 -6.63307,0.91238 -1.03841,0.065 -1.58741,0.13157 -2.13644,0.19813 -3.23763,0.33653 -6.4747,0.94871 -9.7129,0.95428 -7.58701,0.013 -15.17453,-0.26452 -23.26087,-0.71367 -1.56855,-0.3151 -2.63815,-0.34094 -3.70768,-0.36678 -1.70979,-0.31957 -3.41963,-0.63914 -5.1763,-1.21771 z"
   id="path38"
   style="stroke-width:0.683812" />
<path
   fill="#dbe0ec"
   opacity="1"
   stroke="none"
   d="m 232.34256,360.72692 c -1.06259,0.38917 -2.30915,0.88118 -3.36856,0.61836 -14.5651,-3.61375 -28.18213,-9.29095 -39.99768,-18.78091 -1.41827,-1.1391 -2.67602,-1.40595 -4.15203,0.10717 -10.71647,10.98574 -21.47109,21.93451 -32.2668,32.84236 -1.26693,1.28015 -2.85706,2.24034 -4.94898,3.85034 5.65032,4.33175 10.19809,8.15193 15.07429,11.49233 13.27535,9.09411 27.71355,15.84725 43.14388,20.38533 6.01804,1.76989 12.17198,3.07747 18.3312,4.87195 -3.5159,2.50212 -6.78053,-0.0384 -9.9629,-0.77547 -12.46574,-2.88696 -24.64405,-6.85361 -35.87473,-13.1044 -7.18751,-4.00051 -14.11852,-8.48998 -20.97831,-13.04109 -4.0114,-2.66136 -7.65647,-5.87499 -11.90888,-9.18457 14.30647,-13.48553 28.33258,-26.70674 42.82241,-40.36508 11.59299,10.16811 27.24154,16.65932 44.08709,21.08368 z"
   id="path39"
   style="stroke-width:0.683812" />
<path
   fill="#f5f9ff"
   opacity="1"
   stroke="none"
   d="m 265.20104,362.97982 c -5.77927,0.18741 -11.5583,0.38283 -17.33798,0.55591 -1.25073,0.0375 -2.50386,-0.005 -4.07365,-0.17329 -0.31777,-0.16206 -0.42691,-0.3979 -0.42893,-0.58369 -0.001,-0.43334 -6.8e-4,-0.6809 -1.2e-4,-0.92845 7.06022,0.14682 14.1205,0.29367 21.47487,0.64889 0.29407,0.20837 0.36581,0.48063 0.36581,0.48063 z"
   id="path40"
   style="stroke-width:0.683812" />
<path
   fill="#e0e5ec"
   opacity="1"
   stroke="none"
   d="m 243.06492,361.7515 c 0.29481,0.34635 0.29419,0.59391 -0.003,1.02894 -1.28501,0.2483 -2.27392,0.30914 -3.26291,0.36997 -2.46343,-0.55958 -4.92682,-1.11916 -7.4133,-1.94584 3.44563,-0.0287 6.91437,0.2097 10.67861,0.54693 z"
   id="path41"
   style="stroke-width:0.683812" />
<path
   fill="#a6abc6"
   opacity="1"
   stroke="none"
   d="m 265.34429,363.15388 c -0.14325,-0.17406 -0.21499,-0.44632 -0.2027,-0.58655 1.0022,-0.25718 2.40994,-1.76803 2.61147,0.84526 -0.77468,0.10335 -1.52008,0.009 -2.40877,-0.25871 z"
   id="path42"
   style="stroke-width:0.683812" />
<path
   fill="#cdd2e4"
   opacity="1"
   stroke="none"
   d="m 229.62025,417.91995 c 0.82149,-0.0712 1.89109,-0.0453 3.17466,0.12314 -0.83283,0.0864 -1.87973,0.0302 -3.17466,-0.12314 z"
   id="path43"
   style="stroke-width:0.683812" />
<path
   fill="#d6dbe8"
   opacity="1"
   stroke="none"
   d="m 287.36816,414.17288 c 0.35267,-0.18203 0.94099,-0.34196 1.76787,-0.48177 -0.35171,0.18138 -0.94198,0.34263 -1.76787,0.48177 z"
   id="path44"
   style="stroke-width:0.683812" />
<path
   fill="#cdd2e4"
   opacity="1"
   stroke="none"
   d="m 266.25895,418.00564 c 0.34374,-0.12313 0.89274,-0.18969 1.65317,-0.22861 -0.34177,0.11345 -0.89481,0.19931 -1.65317,0.22861 z"
   id="path45"
   style="stroke-width:0.683812" />
<path
   fill="#394896"
   opacity="1"
   stroke="none"
   d="m 270.10076,361.44721 c 0.0863,-0.26631 0.20109,-0.39554 0.31597,-0.52477 0.0539,0.1895 0.10764,0.37899 0.16142,0.56849 -0.14956,0.0311 -0.29917,0.0622 -0.47739,-0.0437 z"
   id="path46"
   style="stroke-width:0.683812" />
<path
   fill="#cdd2e4"
   opacity="1"
   stroke="none"
   d="m 275.02355,416.86751 c 0.15369,-0.17317 0.50773,-0.3174 1.05904,-0.45338 -0.15467,0.16629 -0.50662,0.32429 -1.05904,0.45338 z"
   id="path47"
   style="stroke-width:0.683812" />
<path
   fill="#d6dbe8"
   opacity="1"
   stroke="none"
   d="m 283.18961,415.36764 c -0.0214,-0.14668 0.11505,-0.23911 0.39413,-0.33009 0.045,0.14662 -0.0815,0.27424 -0.39413,0.33009 z"
   id="path48"
   style="stroke-width:0.683812" />
<path
   fill="#dce0ec"
   opacity="1"
   stroke="none"
   d="m 360.34253,260.43377 c -0.0497,-7.27989 0.40183,-14.60477 -0.24664,-21.83088 -1.67579,-18.67254 -8.17726,-35.64129 -19.31579,-50.77922 -0.73825,-1.0033 -1.48714,-1.99887 -2.21521,-3.00946 -0.18744,-0.26014 -0.31456,-0.56375 0.39608,-0.0849 12.27119,-12.75823 24.5424,-25.51648 36.81657,-38.27775 34.06706,36.14323 57.10633,102.9257 28.93053,169.22781 -0.78338,0.15212 -1.14698,0.13186 -1.47481,-0.14895 0.13966,-0.70403 0.17858,-1.17569 0.3568,-1.58696 7.05506,-16.28256 10.92438,-33.32233 11.93274,-51.00576 0.89108,-15.62555 -0.65248,-31.027 -4.43609,-46.2331 -3.94673,-15.86173 -10.0086,-30.85344 -18.65353,-44.68716 -4.94196,-7.90815 -10.67558,-15.32135 -16.29611,-23.30291 -1.5589,1.42973 -2.48704,2.22677 -3.3547,3.08501 -9.87254,9.76552 -19.66662,19.61205 -29.65347,29.25895 -2.30139,2.22297 -2.35752,3.72387 -0.47238,6.24138 7.92448,10.58268 13.35066,22.39851 16.42814,35.25431 1.03734,4.33347 1.73481,8.74832 2.56553,13.35028 0.0145,0.94893 0.0511,1.67358 0.23055,2.70677 0.11998,7.25079 0.0971,14.19305 -0.066,21.2491 -0.58412,0.26701 -1.02824,0.42019 -1.47235,0.5734 z"
   id="path49"
   style="stroke-width:0.683812" />
<path
   fill="#dadfec"
   opacity="1"
   stroke="none"
   d="m 403.19752,315.791 c 0.36357,0.0203 0.72717,0.0406 1.36328,0.077 -6.02658,15.31177 -14.99547,28.92138 -25.8617,41.52008 -13.4913,-14.01318 -26.92333,-27.96474 -40.65002,-42.22236 12.03541,-14.3616 19.31322,-32.29846 22.21866,-52.34059 0.43487,0.072 0.58628,0.27966 0.73488,0.78966 -0.0873,2.1172 0.0297,3.96817 -0.2879,5.74129 -2.71792,15.17661 -8.18477,29.23315 -17.25248,41.79658 -3.69941,5.12559 -3.66164,5.10148 0.80116,9.56435 10.46299,10.46314 20.89128,20.96092 31.34502,31.43339 0.83831,0.83981 1.76377,1.59255 2.92887,2.63679 3.31176,-4.31214 6.70791,-8.01819 9.2776,-12.22886 5.35894,-8.78117 10.28107,-17.82904 15.38263,-26.76733 z"
   id="path50"
   style="stroke-width:0.683812" />
<path
   fill="#d5dae8"
   opacity="1"
   stroke="none"
   d="m 361.00542,263.31247 c -0.1514,-0.20768 -0.30281,-0.41538 -0.61803,-0.72673 -0.16938,-0.62005 -0.1749,-1.1364 -0.11263,-1.90236 0.51188,-0.40282 0.956,-0.556 1.52449,-0.57074 -0.18171,1.15892 -0.48778,2.17937 -0.79383,3.19983 z"
   id="path51"
   style="stroke-width:0.683812" />
<path
   fill="#3a4996"
   opacity="1"
   stroke="none"
   d="m 262.47708,140.39685 c -0.86887,-0.0919 -1.73777,-0.18371 -3.157,-0.41306 -7.01112,-0.19337 -13.47201,-0.28204 -19.93242,-0.2556 -0.66265,0.003 -1.32254,0.69405 -2.29491,1.14768 -3.14102,0.24372 -5.97083,0.40563 -9.08748,0.51596 -1.07831,0.0332 -1.89238,0.0266 -2.6579,0.21618 -14.25043,3.5286 -27.64809,8.96417 -39.35884,18.01037 -2.01542,1.55687 -3.25248,1.59343 -5.10314,-0.3255 -9.9598,-10.32714 -20.06752,-20.5116 -30.11154,-30.75768 -0.75201,-0.76719 -1.40536,-1.63114 -2.23569,-2.60362 4.9103,-3.95588 9.20968,-8.07373 14.11933,-11.24701 12.56128,-8.11882 25.51407,-15.528151 39.87435,-20.203896 13.53285,-4.406346 27.25302,-7.645643 41.68075,-8.072918 0.5314,0.208554 0.90881,0.300843 1.18281,0.646199 -4.97828,0.975443 -9.84853,1.730948 -14.72889,2.413676 -12.20393,1.707218 -24.00185,5.014848 -35.2354,9.964977 -8.16502,3.597962 -16.15544,7.717642 -23.82429,12.276822 -6.08153,3.6155 -11.5652,8.23958 -17.29795,12.4383 -2.33101,1.70729 -2.02145,3.2489 -0.0163,5.21861 8.86005,8.7032 17.6616,17.46935 26.31473,26.37753 2.22614,2.29179 3.89036,2.31152 6.3974,0.54802 14.28105,-10.04549 30.07649,-16.04334 47.53125,-17.68867 13.31691,-1.25528 26.58148,-1.08053 39.65846,1.69985 13.57703,2.88669 26.16317,8.36731 37.36106,16.6452 2.55807,1.891 3.96697,1.64236 6.01939,-0.44383 9.26951,-9.42212 18.65495,-18.73017 27.99892,-28.07905 4.75559,-4.7581 4.70007,-5.42857 -0.78641,-9.42168 -0.0914,-0.0665 -0.20803,-0.0991 -0.29677,-0.16822 -8.88733,-6.92128 -18.34334,-13.02724 -28.77275,-17.22786 -10.0438,-4.045311 -20.3035,-7.744248 -30.75264,-10.527835 -7.25733,-1.933324 -14.99974,-2.030968 -22.51358,-3.03719 -0.75249,-0.100767 -1.42268,-0.81589 -1.93097,-1.283555 0.55413,-0.211924 0.90818,-0.386183 1.55937,-0.550669 2.1631,0.150861 4.02902,0.291949 6.08168,0.628396 1.47453,0.300173 2.76249,0.404988 4.34473,0.503628 1.652,0.10232 3.02595,0.11226 4.36479,0.334031 21.52657,3.565792 41.60018,10.94898 59.77391,23.135794 5.69095,3.81622 11.11312,8.03351 17.48983,12.67207 -3.78909,3.54083 -7.03025,6.37638 -10.05176,9.42945 -9.12259,9.21803 -18.18264,18.49847 -27.20898,27.81093 -1.58532,1.63556 -2.77738,0.87831 -4.11372,-0.17632 -14.77886,-11.66364 -31.72875,-17.91074 -50.28349,-20.14951 z"
   id="path52"
   style="stroke-width:0.683812" />
<path
   fill="#dadfec"
   opacity="1"
   stroke="none"
   d="m 244.05861,86.291489 c -14.27375,0.543542 -27.99392,3.782839 -41.52677,8.189185 -14.36028,4.675745 -27.31307,12.085076 -39.87435,20.203896 -4.90965,3.17328 -9.20903,7.29113 -14.11933,11.24701 0.83033,0.97248 1.48368,1.83643 2.23569,2.60362 10.04402,10.24608 20.15174,20.43054 30.11154,30.75768 1.85066,1.91893 3.08772,1.88237 5.10314,0.3255 11.71075,-9.0462 25.10841,-14.48177 39.35884,-18.01037 0.76552,-0.18956 1.57959,-0.18301 2.67208,0.0247 0.29616,0.61399 0.2912,0.93557 0.28625,1.25714 -16.61725,3.43394 -31.63635,10.30511 -43.91169,20.19704 -13.05289,-12.29698 -25.94244,-24.44004 -38.83343,-36.58447 43.195,-42.762936 137.27039,-67.215934 210.64456,-3.22721 -14.13668,13.29468 -28.25289,26.5701 -42.50212,39.97062 -4.49236,-2.85978 -10.49332,-7.1665 -16.93212,-10.66765 -10.35099,-5.62846 -21.56131,-8.86947 -33.24786,-10.47196 -0.67111,-0.092 -1.20467,-1.18776 -1.42408,-1.76286 18.93287,2.29228 35.88275,8.53938 50.66161,20.20302 1.33634,1.05463 2.5284,1.81188 4.11372,0.17632 9.02635,-9.31246 18.08638,-18.5929 27.20898,-27.81093 3.02151,-3.05307 6.26267,-5.88862 10.05176,-9.42945 -6.37672,-4.63856 -11.79888,-8.85585 -17.48983,-12.67207 -18.17373,-12.186814 -38.24733,-19.570002 -59.77391,-23.135794 -1.33884,-0.221771 -2.71279,-0.231711 -4.56381,-0.525083 -1.7731,-0.292564 -3.05279,-0.400249 -4.33242,-0.507934 -1.86595,-0.141089 -3.73188,-0.282177 -6.20023,-0.535653 -6.30704,-0.01302 -12.01163,0.08635 -17.71622,0.185723 z"
   id="path53"
   style="stroke-width:0.683812" />
<path
   fill="#dadfec"
   opacity="1"
   stroke="none"
   d="m 237.40397,140.79405 c 0.66115,-0.37181 1.32104,-1.06315 1.98369,-1.06586 6.46041,-0.0264 12.9213,0.0622 19.71381,0.22206 -0.35855,0.54509 -1.04297,1.35802 -1.74012,1.36912 -6.06485,0.0966 -12.13196,0.0493 -18.6202,-0.0973 -0.7269,-0.23745 -1.03201,-0.33275 -1.33718,-0.42806 z"
   id="path54"
   style="stroke-width:0.683812" />
<path
   fill="#cbd1e2"
   opacity="1"
   stroke="none"
   d="m 237.09275,140.87587 c 0.61639,0.0135 0.9215,0.10878 1.32625,0.33532 -3.14,0.66685 -6.37963,1.20246 -9.8663,1.70835 -0.24205,-0.35129 -0.23709,-0.67287 -0.24639,-1.23529 2.81561,-0.40275 5.64542,-0.56466 8.78644,-0.80838 z"
   id="path55"
   style="stroke-width:0.683812" />
<path
   fill="#e4e8f2"
   opacity="1"
   stroke="none"
   d="m 314.03575,268.2529 c -2.93599,12.70925 -10.00124,22.38889 -19.35025,30.82266 -9.17322,8.27519 -19.74725,13.41842 -31.88476,14.71187 -17.38871,1.85308 -33.99727,-0.3451 -48.33721,-11.67291 -13.18041,-10.4118 -22.401,-23.47627 -24.20227,-40.34484 -1.91957,-17.97668 0.89243,-34.9462 13.6507,-49.3226 10.53174,-11.86747 22.91995,-19.98193 38.72994,-21.80159 18.91215,-2.17673 36.4279,0.89272 51.46232,14.11257 11.78755,10.36479 19.53114,22.80144 21.34738,38.23365 0.96633,8.21049 1.34157,16.78673 -1.41585,25.26119 m -121.29527,-7.24157 c 2.20795,16.14432 10.30729,28.85382 22.97819,38.72605 14.07577,10.96679 30.24271,13.81027 47.54121,11.35624 15.98735,-2.26801 28.58538,-10.45893 38.358,-23.04911 8.45477,-10.89251 11.88061,-23.30682 11.69644,-37.17305 -0.25974,-19.56503 -8.65049,-34.5954 -23.66363,-46.38145 -14.01005,-10.99859 -30.15258,-13.55358 -47.29067,-11.16646 -25.68523,3.57762 -46.5663,25.0594 -49.7319,51.32975 0.0417,5.26222 0.0833,10.52442 0.11236,16.35803 z"
   id="path56"
   style="stroke-width:0.683812" />
<path
   fill="#253fcc"
   opacity="1"
   stroke="none"
   d="m 137.3538,262.39782 c 0.73301,15.39202 4.70302,29.5881 11.72848,42.8887 2.32237,4.39681 5.32008,8.43308 7.77809,12.76525 0.46514,0.8199 0.28838,2.70615 -0.34885,3.34403 -8.84608,8.85479 -17.83581,17.5657 -26.76454,26.33818 -3.852,3.7846 -4.34417,3.68512 -7.79888,-0.56306 -8.14367,-10.01394 -14.47639,-21.13924 -19.99824,-32.72406 -6.672388,-13.99868 -10.903496,-28.77227 -13.139769,-44.11959 -2.261949,-15.52359 -2.020794,-30.99855 0.730803,-46.44634 2.730271,-15.32811 7.608162,-29.96432 14.894066,-43.68118 3.75966,-7.07811 8.50043,-13.63782 12.85572,-20.39447 1.15242,-1.78784 2.4901,-3.46002 3.79543,-5.14443 1.42434,-1.83798 2.77694,-1.82644 4.48113,-0.10373 10.17321,10.28379 20.40696,20.50803 30.6716,30.7006 1.63063,1.61912 1.98507,2.96399 0.57772,5.01608 -6.12904,8.937 -11.20281,18.37291 -14.53966,28.79394 -4.50139,14.05806 -5.30381,28.43657 -4.9231,43.33008 m 11.3309,47.88839 c -5.72671,-9.80807 -9.54217,-20.41878 -11.85031,-31.4356 -2.738,-13.06862 -3.13311,-26.39406 -1.42877,-39.66303 1.3606,-10.59284 3.5002,-21.07934 8.20332,-30.77175 2.75908,-5.68605 6.12476,-11.07671 9.18973,-16.61567 1.13592,-2.0529 2.69134,-3.92801 0.22256,-6.35122 -9.26577,-9.09488 -18.4114,-18.31278 -27.55166,-27.53455 -1.93866,-1.95596 -3.28206,-1.60722 -4.45068,0.68618 -0.3064,0.60131 -0.60268,1.21162 -0.95972,1.78269 -4.62501,7.39732 -9.69575,14.55538 -13.79891,22.2311 -7.712187,14.42712 -12.310244,29.92423 -14.93168,46.10739 -1.960441,12.10255 -2.481008,24.23567 -0.888512,36.26486 2.221699,16.782 6.509251,33.07303 13.970252,48.47227 5.47102,11.29202 11.89104,21.89635 19.4655,31.87658 1.91177,2.51896 2.99198,1.88912 4.73716,0.12514 8.09032,-8.17766 16.25128,-16.2853 24.37013,-24.43481 0.53217,-0.53419 0.92393,-1.20833 1.35708,-1.78544 -1.86302,-2.97179 -3.61125,-5.76047 -5.65549,-8.95414 z"
   id="path57"
   style="stroke-width:0.683812" />
<path
   fill="#d9deeb"
   opacity="1"
   stroke="none"
   d="m 100.5801,182.95416 c -0.01,-0.41366 0.12995,-0.98501 0.45566,-1.68256 0.0219,0.42416 -0.14222,0.97452 -0.45566,1.68256 z"
   id="path58"
   style="stroke-width:0.683812" />
<path
   fill="#d9deeb"
   opacity="1"
   stroke="none"
   d="m 98.523288,187.57193 c -0.02288,-0.39404 0.112869,-0.91368 0.411572,-1.55945 0.0243,0.39386 -0.114293,0.91386 -0.411572,1.55945 z"
   id="path59"
   style="stroke-width:0.683812" />
<path
   fill="#d9deeb"
   opacity="1"
   stroke="none"
   d="m 142.14346,166.41737 c 0.42927,0.57202 0.55617,1.15041 0.69483,2.01849 -0.32459,-0.4776 -0.66086,-1.24485 -0.69483,-2.01849 z"
   id="path60"
   style="stroke-width:0.683812" />
<path
   fill="#d9deeb"
   opacity="1"
   stroke="none"
   d="m 123.78565,149.69034 c 0.005,-0.31734 0.12785,-0.45843 0.41981,-0.62311 0.14009,0.20598 0.15232,0.47137 0.16635,0.93634 -0.21067,0.13346 -0.38087,0.009 -0.58616,-0.31323 z"
   id="path61"
   style="stroke-width:0.683812" />
<path
   fill="#011bfd"
   opacity="1"
   stroke="none"
   d="m 321.73419,393.58696 c -5.23885,2.66547 -10.10132,5.61148 -15.31817,7.64985 -8.065,3.15117 -16.29435,5.94948 -24.60694,8.3723 -4.73863,1.38117 -9.76057,1.88775 -14.69163,2.48458 -5.62387,0.6807 -11.29417,1.49208 -16.93457,1.42492 -16.43379,-0.1957 -32.41955,-3.09486 -48.0344,-8.38701 -15.09219,-5.11497 -29.01757,-12.27104 -41.69187,-21.90674 -1.07898,-0.82032 -2.30354,-1.44723 -3.4037,-2.24263 -0.43849,-0.31705 -0.72272,-0.84762 -1.29924,-1.55244 0.75047,-0.8578 1.42679,-1.72456 2.19733,-2.49739 8.9295,-8.95641 17.94603,-17.82788 26.75902,-26.89728 2.05194,-2.11167 3.5261,-2.12197 5.74587,-0.48175 12.04992,8.90412 25.75863,14.06179 40.3588,16.55336 13.47026,2.29876 27.04833,2.42212 40.70033,0.55821 16.45244,-2.24624 31.343,-8.05697 44.9479,-17.45606 0.66502,-0.45943 2.3705,-0.46583 2.86264,0.0343 8.83945,8.98308 17.56674,18.07663 26.31115,27.15314 0.0604,0.0626 0.0248,0.2176 0.0748,0.82414 -6.90089,6.56714 -15.34914,11.37705 -23.97733,16.36654 m -64.15913,-22.1984 c -3.4547,0.11702 -6.90944,0.23402 -10.63359,0.49302 -0.16741,0.12508 -0.2895,0.28484 -0.81184,0.77709 -0.17506,5.0466 -0.44188,10.0923 -0.49045,15.1401 -0.0287,2.98291 0.55108,6.13884 -4.09528,5.7928 -0.22849,-0.017 -0.50699,0.63651 -0.87791,1.44846 3.54969,3.87803 7.06603,7.78797 10.70109,11.58419 0.3585,0.37439 1.7519,0.37585 2.14415,0.003 3.52697,-3.35534 6.96461,-6.80705 10.34033,-10.31536 0.34069,-0.35407 0.10053,-1.26726 -0.0452,-2.38549 -1.71491,-0.60282 -3.42979,-1.20565 -5.09735,-2.40742 0,-5.28566 0.0611,-10.57254 -0.0445,-15.8561 -0.0253,-1.26242 -0.60555,-2.51376 -1.08951,-4.274 z"
   id="path62"
   style="stroke-width:0.683812" />
<path
   fill="#a6abc6"
   opacity="1"
   stroke="none"
   d="m 240.03342,363.27714 c 0.75517,-0.18756 1.74409,-0.2484 3.03111,-0.31093 0.29797,-10e-4 0.40711,0.23417 0.41611,0.36382 -1.06515,0.11105 -2.13925,0.0925 -3.44722,-0.0529 z"
   id="path63"
   style="stroke-width:0.683812" />
<path
   fill="#d6dbe8"
   opacity="1"
   stroke="none"
   d="m 277.86018,414.62761 c -0.47785,0.16665 -1.17179,0.27591 -2.0822,0.38769 0.47773,-0.14666 1.17191,-0.29585 2.0822,-0.38769 z"
   id="path64"
   style="stroke-width:0.683812" />
<path
   fill="#d6dbe8"
   opacity="1"
   stroke="none"
   d="m 293.73544,410.51494 c 0.0112,0.12499 -0.1518,0.22955 -0.49086,0.30942 -0.01,-0.12503 0.1544,-0.22675 0.49086,-0.30942 z"
   id="path65"
   style="stroke-width:0.683812" />
<path
   fill="#d6dbe8"
   opacity="1"
   stroke="none"
   d="m 273.85028,415.24361 c -0.0306,0.13088 -0.25281,0.22746 -0.66044,0.33483 0.0327,-0.11588 0.25074,-0.2425 0.66044,-0.33483 z"
   id="path66"
   style="stroke-width:0.683812" />
<path
   fill="#cdd2e4"
   opacity="1"
   stroke="none"
   d="m 267.7775,416.00662 c 0.0388,0.14634 -0.0773,0.2432 -0.33199,0.3375 -0.0592,-0.14111 0.0463,-0.26926 0.33199,-0.3375 z"
   id="path67"
   style="stroke-width:0.683812" />
<path
   fill="#3b4996"
   opacity="1"
   stroke="none"
   d="m 361.00262,263.61479 c 0.30885,-1.32278 0.61492,-2.34323 0.9366,-3.61596 0.0386,-7.19451 0.0616,-14.13677 0.0122,-21.59581 -0.14121,-1.25212 -0.21019,-1.98746 -0.27917,-2.7228 -0.8528,-4.37768 -1.55026,-8.79253 -2.5876,-13.126 -3.07748,-12.8558 -8.50367,-24.67163 -16.42814,-35.25431 -1.88514,-2.51751 -1.82902,-4.01841 0.47237,-6.24138 9.98686,-9.6469 19.78094,-19.49343 29.65348,-29.25895 0.86766,-0.85824 1.79579,-1.65528 3.35469,-3.08501 5.62053,7.98156 11.35415,15.39476 16.29612,23.30291 8.64493,13.83372 14.7068,28.82543 18.65352,44.68716 3.78362,15.2061 5.32718,30.60755 4.4361,46.2331 -1.00836,17.68343 -4.87769,34.7232 -11.93274,51.00576 -0.17822,0.41127 -0.21714,0.88293 -0.35678,1.58696 -5.13733,9.19883 -10.05945,18.2467 -15.4184,27.02787 -2.56969,4.21067 -5.96584,7.91672 -9.2776,12.22886 -1.1651,-1.04424 -2.09056,-1.79698 -2.92887,-2.63679 -10.45373,-10.47247 -20.88203,-20.97025 -31.34502,-31.43339 -4.46279,-4.46287 -4.50056,-4.43876 -0.80115,-9.56435 9.06771,-12.56343 14.53456,-26.61997 17.25247,-41.79658 0.31755,-1.77312 0.2006,-3.62409 0.28791,-5.74129 M 344.68433,183.2182 c 0.15295,0.91494 0.30582,1.82987 0.49208,3.24043 0.18137,0.52708 0.29586,1.08972 0.55422,1.57583 3.3223,6.25004 6.72169,12.45989 9.9768,18.74455 1.4327,2.76612 2.58261,5.67876 3.87016,8.97145 0.0135,0.2975 0.0269,0.59499 0.0752,1.32533 0.41335,0.33797 0.82663,0.67594 1.23178,1.45377 -0.002,0.29328 -0.004,0.58656 -0.29612,1.23206 0.82147,3.5253 1.643,7.05061 2.45782,11.11351 0.0194,0.71616 0.0388,1.43232 -0.0125,2.75764 0.21392,4.6468 0.6084,9.29406 0.59711,13.94032 -0.015,6.12792 -0.34851,12.25506 -0.57146,18.88559 -0.003,0.50365 -0.005,1.00728 -0.39372,1.87036 -0.31253,1.94816 -0.62508,3.89633 -0.95868,6.2844 -0.005,0.29355 -0.0104,0.58711 -0.40295,1.22617 -1.92431,5.8637 -3.53319,11.85626 -5.86087,17.55512 -2.36836,5.79843 -5.44468,11.3076 -8.23806,17.262 0,0 -0.005,0.31968 -0.46945,0.41481 -3.62467,2.69508 -4.50567,4.77419 -2.50898,6.78173 6.64653,6.68276 13.42508,13.23425 20.13253,19.86282 0,0 0.0268,-0.0205 0.21185,0.39593 2.2151,2.13906 4.43013,4.27812 6.62557,6.44294 0,0 0.0258,-0.0197 0.21184,0.39711 1.49895,1.55189 2.81242,3.38481 4.56986,4.54505 0.97668,0.6448 2.8856,0.59427 4.02549,0.0814 1.24838,-0.56167 2.31918,-1.87817 3.07959,-3.10592 4.51685,-7.29275 9.03867,-14.58721 13.33365,-22.01142 5.28961,-9.14337 8.96898,-18.96754 11.67375,-29.61931 0.007,-0.29761 0.0148,-0.59523 0.38705,-1.23662 0.76343,-3.09146 1.52683,-6.18294 2.32337,-9.71656 0.005,-0.29551 0.01,-0.59101 0.39149,-1.23597 0.3231,-1.94346 0.64615,-3.88688 0.99009,-6.27753 10e-4,-0.29842 0.002,-0.59687 0.38552,-1.27492 0.10797,-1.47012 0.21587,-2.94022 0.33251,-4.86389 -6.8e-4,-0.30242 -10e-4,-0.60481 0.36527,-1.3304 0.3294,-6.78865 0.84099,-13.57557 0.90649,-20.36679 0.0299,-3.09621 -0.82116,-6.20093 -1.26852,-9.75566 -0.003,-0.30257 -0.007,-0.60515 0.0135,-1.46022 -0.24709,-1.18345 -0.49422,-2.3669 -0.73055,-3.99844 -0.009,-0.29862 -0.0176,-0.59725 0.0164,-1.47154 -0.46057,-2.09641 -0.92113,-4.19283 -1.37915,-6.73422 -0.0154,-0.2962 -0.0308,-0.5924 6.9e-4,-1.45359 -1.12655,-4.3785 -2.17959,-8.77803 -3.42111,-13.12371 -0.41425,-1.44997 -1.31071,-2.76212 -1.98558,-4.48239 -0.005,-0.1149 -0.0112,-0.22981 -0.0146,-0.88147 -0.70076,-1.86713 -1.40153,-3.73426 -2.09877,-6.04613 -0.0129,-0.29619 -0.0258,-0.59237 -0.0616,-1.39415 -0.58954,-1.4582 -1.09747,-2.95595 -1.78129,-4.36847 -6.46836,-13.36116 -13.30602,-26.48917 -23.11532,-37.82291 -2.6964,-3.11546 -3.21562,-3.32248 -6.09385,-0.45264 -7.7402,7.71776 -15.47222,15.44391 -23.16724,23.20674 -0.76862,0.77541 -1.26123,1.82454 -2.32334,2.83794 -0.54261,0.64819 -1.08516,1.2964 -2.07822,2.07983 z"
   id="path68"
   style="stroke-width:0.683812" />
<path
   fill="#d5dae8"
   opacity="1"
   stroke="none"
   d="m 361.65019,235.9045 c 0.0911,0.51106 0.16004,1.2464 0.15828,2.18999 -0.10723,-0.51641 -0.14375,-1.24106 -0.15828,-2.18999 z"
   id="path69"
   style="stroke-width:0.683812" />
<path
   fill="#253fcc"
   opacity="1"
   stroke="none"
   d="m 260.32066,86.796715 c 0.70834,0.43 1.37855,1.145123 2.13103,1.24589 7.51384,1.006222 15.25625,1.103866 22.51359,3.03719 10.44913,2.783587 20.70884,6.482524 30.75264,10.527835 10.4294,4.20062 19.88541,10.30658 28.77278,17.22786 0.0887,0.0691 0.2054,0.10171 0.29677,0.16822 5.48647,3.99311 5.54199,4.66358 0.78641,9.42168 -9.34397,9.34888 -18.72941,18.65693 -27.99892,28.07905 -2.05243,2.08619 -3.46133,2.33483 -6.01939,0.44383 -11.1979,-8.27789 -23.78404,-13.75851 -37.36107,-16.6452 -13.07697,-2.78038 -26.34154,-2.95513 -39.65846,-1.69985 -17.45475,1.64533 -33.2502,7.64318 -47.53124,17.68867 -2.50704,1.7635 -4.17126,1.74377 -6.39741,-0.54802 -8.65313,-8.90818 -17.45468,-17.67433 -26.31473,-26.37753 -2.00524,-1.96971 -2.3148,-3.51132 0.0163,-5.21861 5.73275,-4.19872 11.21642,-8.8228 17.29795,-12.4383 7.66885,-4.55918 15.65927,-8.67886 23.8243,-12.276822 11.23355,-4.950129 23.03147,-8.257759 35.2354,-9.964977 4.88036,-0.682728 9.7506,-1.438233 15.0371,-2.419477 5.14678,-0.256391 9.88191,-0.253914 14.61705,-0.251439 m -61.52642,13.734675 c -15.26507,6.97864 -30.16498,14.55842 -43.44431,26.0925 9.79144,9.54027 19.28335,18.78868 28.215,27.4912 8.98829,-4.33341 17.73913,-9.23445 26.9912,-12.85336 13.95284,-5.45757 28.72508,-6.86517 43.60229,-5.84183 8.10541,0.55753 16.22994,1.69481 24.18835,3.33497 12.27579,2.5299 23.4078,7.95597 33.61774,15.20479 1.92057,1.36358 3.32037,1.40674 5.03293,-0.32573 9.13237,-9.2385 18.31122,-18.43175 27.5483,-27.56545 1.85114,-1.83038 1.37224,-3.20801 -0.39955,-4.44654 -4.55609,-3.18484 -9.00579,-6.57304 -13.80557,-9.34773 -11.30375,-6.53457 -22.97449,-12.19094 -35.66375,-15.792917 -11.84586,-3.362563 -23.71052,-6.478154 -36.04885,-6.260549 -10.52616,0.185647 -21.16725,0.579816 -31.5124,2.330708 -9.44175,1.597995 -18.55453,5.140666 -28.32139,7.979938 z"
   id="path70"
   style="stroke-width:0.683812" />
<path
   fill="#4a5592"
   opacity="1"
   stroke="none"
   d="m 260.52073,86.759051 c -4.93521,0.03519 -9.67033,0.03271 -14.7137,0.03603 -0.68563,-0.08649 -1.06304,-0.178777 -1.59444,-0.387331 5.55061,-0.215638 11.2552,-0.315008 17.26504,-0.311763 -0.0489,0.276874 -0.40279,0.451133 -0.9569,0.663058 z"
   id="path71"
   style="stroke-width:0.683812" />
<path
   fill="#4a5592"
   opacity="1"
   stroke="none"
   d="m 268.16177,86.836777 c 1.09292,-0.08767 2.37261,0.02001 3.85126,0.318751 -1.08878,0.08624 -2.37673,-0.01858 -3.85126,-0.318751 z"
   id="path72"
   style="stroke-width:0.683812" />
<path
   fill="#3a4996"
   opacity="1"
   stroke="none"
   d="m 192.74312,244.01969 c 3.0506,-25.63674 23.93167,-47.11852 49.6169,-50.69614 17.13809,-2.38712 33.28062,0.16787 47.29067,11.16646 15.01314,11.78605 23.40389,26.81642 23.66363,46.38145 0.18417,13.86623 -3.24167,26.28054 -11.69644,37.17305 -9.77262,12.59018 -22.37065,20.7811 -38.358,23.04911 -17.2985,2.45403 -33.46544,-0.38945 -47.54121,-11.35624 -12.6709,-9.87223 -20.77024,-22.58173 -22.81024,-39.14657 0.51011,-1.01476 0.85232,-1.60898 1.37249,-2.00809 0.43529,1.52506 0.69204,2.85516 0.95005,4.18499 2.71188,13.97531 10.00124,25.1785 20.77702,34.25552 6.4563,5.43852 13.95954,9.11995 22.02865,11.04138 12.14179,2.89122 24.30871,2.45127 36.13641,-2.16521 12.85986,-5.01931 22.72081,-13.65531 29.70769,-25.37553 6.81914,-11.43884 8.32365,-23.97269 6.5867,-37.11872 -2.12532,-16.08465 -10.54529,-28.19812 -23.12437,-37.69008 -11.98719,-9.04538 -25.83607,-12.2173 -40.53588,-10.74389 -6.20311,0.62176 -12.43444,2.55546 -18.27127,4.85987 -8.44838,3.33546 -15.60469,8.94439 -21.00157,16.24068 -3.66476,4.95453 -6.75102,10.46898 -9.26021,16.10528 -2.03604,4.57359 -2.82792,9.70126 -4.33581,14.42767 -0.50785,-0.96534 -0.85156,-1.77517 -1.19521,-2.58499 z"
   id="path73"
   style="stroke-width:0.683812" />
<path
   fill="#2b387b"
   opacity="1"
   stroke="none"
   d="m 194.10296,258.38762 c -0.34221,0.59421 -0.68442,1.18843 -1.18827,1.91748 -0.20326,-5.12738 -0.24495,-10.38958 -0.22907,-15.96861 0.40115,0.49302 0.74486,1.30285 1.25845,2.588 0.16625,4.13793 0.16257,7.80053 0.15889,11.46313 z"
   id="path74"
   style="stroke-width:0.683812" />
<path
   fill="#011bfd"
   opacity="1"
   stroke="none"
   d="m 148.83271,310.48871 c 1.89623,2.99117 3.64446,5.77985 5.50748,8.75164 -0.43315,0.57711 -0.82491,1.25125 -1.35708,1.78544 -8.11885,8.14951 -16.27981,16.25715 -24.37013,24.43481 -1.74518,1.76398 -2.82539,2.39382 -4.73716,-0.12514 -7.57446,-9.98023 -13.99448,-20.58456 -19.4655,-31.87658 -7.461001,-15.39924 -11.748553,-31.69027 -13.970252,-48.47227 -1.592496,-12.02919 -1.071929,-24.16231 0.888512,-36.26486 2.621436,-16.18316 7.219493,-31.68027 14.93168,-46.10739 4.10316,-7.67572 9.1739,-14.83378 13.79891,-22.2311 0.35704,-0.57107 0.65332,-1.18138 0.95972,-1.78269 1.16862,-2.2934 2.51202,-2.64214 4.45068,-0.68618 9.14026,9.22177 18.28589,18.43967 27.55166,27.53455 2.46878,2.42321 0.91336,4.29832 -0.22256,6.35122 -3.06497,5.53896 -6.43065,10.92962 -9.18973,16.61567 -4.70312,9.69241 -6.84272,20.17891 -8.20332,30.77175 -1.70434,13.26897 -1.30923,26.59441 1.42877,39.66303 2.30814,11.01682 6.1236,21.62753 11.99832,31.6381 m -42.28749,-45.36433 c 2.12479,1.1185 2.74314,-0.12861 2.67648,-1.89169 -0.0943,-2.49347 1.17294,-3.07585 3.36983,-3.04004 5.10968,0.0833 10.22237,-0.0252 15.33238,0.047 2.53525,0.0358 3.85481,-0.92941 3.76416,-3.58989 -0.0696,-2.04247 -0.073,-4.09134 8.9e-4,-6.13354 0.0938,-2.59281 -1.05725,-3.72044 -3.6677,-3.67994 -4.99624,0.0775 -9.99599,-0.0514 -14.99142,0.0485 -2.37763,0.0475 -3.99218,-0.30322 -3.81894,-3.26386 0.13829,-2.36331 -1.64151,-3.02901 -3.05413,-1.67966 -3.63897,3.47598 -6.908708,7.33868 -10.416501,11.50935 3.532762,3.7561 7.065521,7.51222 10.804921,11.67374 z"
   id="path75"
   style="stroke-width:0.683812" />
<path
   fill="#0d0f2c"
   opacity="1"
   stroke="none"
   d="m 263.98149,394.39063 c -0.0295,0.65373 0.21075,1.56692 -0.12994,1.92099 -3.37572,3.50831 -6.81336,6.96001 -10.34033,10.31536 -0.39225,0.37314 -1.78565,0.37168 -2.14415,-0.003 -3.63506,-3.79621 -7.1514,-7.70615 -10.36261,-11.83989 2.7249,-0.46113 5.75372,0.29113 5.73853,-3.6563 -0.0241,-6.25585 -0.10866,-12.51144 -0.16773,-18.76715 0.0767,-0.19445 0.19879,-0.35421 0.83449,-0.49025 3.75363,-6e-5 7.03891,0.0109 10.32421,0.0218 0.32505,1.25643 0.90541,2.50777 0.9306,3.77019 0.1055,5.28356 0.0445,10.57043 -0.0424,16.42697 1.05319,3.27439 3.42287,2.10547 5.35931,2.30105 m -7.53848,-17.30229 c 0,-0.98783 0,-1.97565 0,-3.08313 -2.77937,0 -5.21295,0 -7.91904,0 0,5.94868 -0.10551,11.7222 0.0454,17.48903 0.0733,2.80284 -0.16661,4.9868 -4.24247,4.40302 3.10477,2.99603 5.73627,5.5354 7.51697,7.25376 2.72749,-2.37977 5.46692,-4.76994 8.18893,-7.1449 -1.10287,-0.11394 -2.1938,-0.22663 -3.58949,-0.37083 0,-6.08806 0,-11.97891 -2.3e-4,-18.54695 z"
   id="path76"
   style="stroke-width:0.683812" />
<path
   fill="#040b6a"
   opacity="1"
   stroke="none"
   d="m 246.35248,372.50983 c 0.28185,6.1068 0.36645,12.36239 0.39051,18.61824 0.0152,3.94743 -3.01363,3.19517 -5.68062,3.42099 -0.0255,-0.32093 0.25303,-0.97447 0.48152,-0.95744 4.64636,0.34603 4.06661,-2.8099 4.09528,-5.7928 0.0486,-5.0478 0.31539,-10.0935 0.71331,-15.28899 z"
   id="path77"
   style="stroke-width:0.683812" />
<path
   fill="#040b6a"
   opacity="1"
   stroke="none"
   d="m 257.65453,371.64051 c -3.20587,0.24101 -6.49115,0.2301 -10.11,0.15918 3.12108,-0.17707 6.57582,-0.29407 10.11,-0.15918 z"
   id="path78"
   style="stroke-width:0.683812" />
<path
   fill="#040b6a"
   opacity="1"
   stroke="none"
   d="m 263.8939,394.15838 c -1.84885,0.0367 -4.21853,1.20559 -5.29536,-1.7693 1.77808,0.3314 3.49296,0.93422 5.29536,1.7693 z"
   id="path79"
   style="stroke-width:0.683812" />
<path
   fill="#213cd9"
   opacity="1"
   stroke="none"
   d="m 410.81611,283.00222 c -0.005,0.2955 -0.01,0.591 -0.24904,1.14733 -0.94231,0.49006 -1.65044,0.71931 -2.38285,0.66726 2.30103,-11.08599 3.51569,-22.03887 3.27651,-33.06412 -0.13949,-6.42957 -1.23165,-12.84319 -1.98244,-19.25377 -1.39807,-11.93705 -4.91272,-23.34856 -9.38415,-34.41221 -3.01016,-7.44801 -6.91897,-14.53266 -10.18505,-21.74579 0.78987,0.41357 1.5859,0.66835 1.85022,1.19176 2.78211,5.50811 5.40623,11.09704 8.24693,16.57391 0.79398,1.53081 2.15781,2.76595 3.2602,4.13672 0.0129,0.29618 0.0258,0.59236 -0.12396,1.27266 -1.00067,3.0079 0.74757,4.55407 2.25921,6.19877 0.005,0.11491 0.0112,0.22982 -0.15199,0.67218 1.1013,5.60724 2.3211,10.90027 3.70311,16.15059 0.17837,0.6776 1.19633,1.1341 1.8254,1.69305 0.0154,0.29619 0.0308,0.59239 -0.12945,1.30836 -0.55472,2.82227 -1.07062,5.26043 1.51203,6.89012 0.009,0.29862 0.0176,0.59725 -0.14656,1.30623 0.1781,1.65377 0.52908,2.89718 0.88002,4.14058 0.003,0.30257 0.007,0.60515 -0.17642,1.34571 -0.28799,1.33222 -0.4756,2.22621 -0.47817,3.12073 -0.0227,7.91951 -0.0378,15.83932 0.0179,23.7585 0.008,1.07759 0.41744,2.15234 0.64101,3.22841 6.8e-4,0.30241 10e-4,0.6048 -0.2473,1.20112 -0.32149,1.8458 -0.39329,3.39771 -0.46503,4.94961 -10e-4,0.29843 -0.002,0.59688 -0.24836,1.18676 -0.53726,2.30614 -0.82949,4.32085 -1.12168,6.33553 z"
   id="path80"
   style="stroke-width:0.683812" />
<path
   fill="#213cd9"
   opacity="1"
   stroke="none"
   d="m 347.19984,310.97641 c 0,0 0.005,-0.31968 0.25289,-0.51319 1.23278,-1.40624 2.51435,-2.48103 3.15337,-3.85484 3.2973,-7.08884 6.6609,-14.16385 9.50812,-21.43683 1.16485,-2.97551 1.08878,-6.43704 1.57724,-9.67745 0.005,-0.29355 0.0104,-0.58711 0.24998,-1.11935 0.94718,-0.48123 1.65997,-0.7238 2.38778,-0.68397 -2.54776,14.4399 -7.7475,27.50923 -16.28067,39.14298 -1.62185,2.21114 -1.3628,3.58011 0.54498,5.45168 9.16986,8.99564 18.23542,18.09881 27.24972,27.25081 1.47925,1.50188 2.6826,1.85983 4.25001,0.6672 -0.71622,3.2513 -2.27535,2.7694 -4.20022,1.36444 -1.49713,-1.09277 -3.1095,-2.02759 -4.67061,-3.03261 0,0 -0.0258,0.0197 -0.0244,-0.23941 -1.3733,-3.33645 -3.27293,-5.84962 -6.81216,-6.60024 0,0 -0.0268,0.0204 -0.0251,-0.23884 -0.71467,-1.37005 -1.26874,-2.63948 -2.1741,-3.56526 -5.01079,-5.12365 -10.0756,-10.19575 -15.1904,-15.21573 -1.91398,-1.87852 -2.58078,-3.66679 -0.53858,-5.86971 0.41843,-0.45129 0.50338,-1.21175 0.74204,-1.82968 z"
   id="path81"
   style="stroke-width:0.683812" />
<path
   fill="#2942bf"
   opacity="1"
   stroke="none"
   d="m 403.25505,197.99052 c -1.091,-1.11798 -2.45483,-2.35312 -3.24881,-3.88393 -2.8407,-5.47687 -5.46482,-11.0658 -8.24693,-16.57391 -0.26432,-0.52341 -1.06035,-0.77819 -1.8704,-1.34382 -0.261,-0.18611 -0.27553,-0.49281 -0.26357,-0.75334 -1.12572,-1.92758 -2.26333,-3.59463 -3.39496,-5.26617 0.006,-0.005 -0.002,0.006 -0.002,-0.24978 -1.04143,-3.79235 -2.98299,-6.6674 -6.15042,-8.64138 0.005,-0.004 -0.002,0.006 -0.003,-0.24488 -1.48776,-2.3977 -2.97517,-4.54495 -4.63617,-6.94266 -1.42938,1.3682 -2.33746,2.20588 -3.21081,3.07837 -7.23084,7.22381 -14.43751,14.47202 -21.70377,21.66004 -0.92903,0.91905 -2.15833,1.53451 -3.26656,2.27246 -0.0181,-0.0181 -0.0543,-0.0544 -0.0543,-0.0544 0.62069,-0.92212 1.11329,-1.97125 1.88192,-2.74666 7.69501,-7.76283 15.42703,-15.48898 23.16724,-23.20674 2.87822,-2.86983 3.39744,-2.66281 6.09384,0.45264 9.80931,11.33374 16.64696,24.46175 23.11532,37.82292 0.68382,1.41252 1.19175,2.91027 1.79275,4.62127 z"
   id="path82"
   style="stroke-width:0.683812" />
<path
   fill="#2942bf"
   opacity="1"
   stroke="none"
   d="m 371.31545,344.74368 c 1.46809,0.79662 3.08046,1.73144 4.57759,2.82421 1.92487,1.40496 3.484,1.88686 4.27867,-1.54028 0.2733,-0.77006 0.46045,-1.10601 0.88,-1.48171 2.3752,-1.22224 4.11564,-2.67076 3.90107,-5.63952 0.28213,-0.5 0.48255,-0.82666 0.91191,-1.19656 3.07355,-2.64601 5.51612,-5.48761 5.90035,-9.76121 0.23256,-0.5159 0.4455,-0.83397 0.8773,-1.19627 0.74688,-1.1638 1.27482,-2.28334 1.82475,-3.60109 0.23759,-0.51686 0.45333,-0.83551 0.90362,-1.20169 1.46267,-2.97921 2.69082,-5.91093 3.9332,-9.04022 0.21012,-0.52448 0.40602,-0.8514 0.84191,-1.23195 1.48852,-2.96866 2.57315,-5.9692 4.03447,-8.77333 1.3173,-2.52756 0.77327,-6.01768 3.88151,-7.61681 -2.67573,10.20643 -6.3551,20.0306 -11.6447,29.17397 -4.29498,7.42421 -8.81681,14.71867 -13.33366,22.01142 -0.76041,1.22775 -1.8312,2.54425 -3.07958,3.10592 -1.13989,0.51283 -3.04882,0.56336 -4.02549,-0.0814 -1.75744,-1.16024 -3.07092,-2.99316 -4.66292,-4.75344 z"
   id="path83"
   style="stroke-width:0.683812" />
<path
   fill="#213cd9"
   opacity="1"
   stroke="none"
   d="m 363.10436,233.02361 c -0.0194,-0.71616 -0.0388,-1.43232 0.10659,-2.60127 0.48264,-1.69775 0.80064,-2.9427 1.30528,-3.99232 2.7273,11.50156 1.8817,22.98396 1.75934,34.40399 -0.0403,3.75307 -1.2536,7.49355 -2.10195,11.05937 -0.48845,-1.42821 -0.80547,-2.67599 -1.12252,-3.92378 0.003,-0.50364 0.005,-1.00727 0.27369,-1.82661 0.74573,-1.23925 1.63307,-2.15821 1.64366,-3.08712 0.10431,-9.16891 0.11372,-18.3402 -0.0208,-27.50832 -0.0125,-0.85014 -1.20092,-1.68303 -1.84333,-2.52394 z"
   id="path84"
   style="stroke-width:0.683812" />
<path
   fill="#2942bf"
   opacity="1"
   stroke="none"
   d="m 361.4978,275.66685 c -0.2948,3.06766 -0.21873,6.52919 -1.38358,9.5047 -2.84722,7.27298 -6.21082,14.34799 -9.50812,21.43683 -0.63902,1.37381 -1.92059,2.4486 -3.13981,3.69555 2.53223,-5.6016 5.60856,-11.11077 7.97692,-16.9092 2.32767,-5.69886 3.93655,-11.69142 6.05459,-17.72788 z"
   id="path85"
   style="stroke-width:0.683812" />
<path
   fill="#2942bf"
   opacity="1"
   stroke="none"
   d="m 346.96776,311.02397 c -0.007,0.57037 -0.0915,1.33083 -0.50996,1.78212 -2.04221,2.20292 -1.37541,3.99119 0.53858,5.86971 5.11479,5.01998 10.1796,10.09208 15.1904,15.21573 0.90535,0.92578 1.45943,2.19521 2.18431,3.55191 -6.7193,-6.35592 -13.49785,-12.90741 -20.14438,-19.59017 -1.99668,-2.00754 -1.11569,-4.08665 2.74105,-6.8293 z"
   id="path86"
   style="stroke-width:0.683812" />
<path
   fill="#2942bf"
   opacity="1"
   stroke="none"
   d="m 363.06905,233.32819 c 0.67772,0.53633 1.86623,1.36922 1.87865,2.21936 0.13447,9.16812 0.12506,18.33941 0.0208,27.50832 -0.0106,0.92891 -0.89793,1.84787 -1.63051,2.83558 -0.0557,-6.0633 0.27793,-12.19044 0.29294,-18.31836 0.0114,-4.64626 -0.38319,-9.29352 -0.56183,-14.2449 z"
   id="path87"
   style="stroke-width:0.683812" />
<path
   fill="#2942bf"
   opacity="1"
   stroke="none"
   d="m 359.56837,215.30389 c -1.27833,-2.84612 -2.42824,-5.75876 -3.86094,-8.52488 -3.25511,-6.28466 -6.6545,-12.49451 -9.9768,-18.74455 -0.25836,-0.48611 -0.37285,-1.04875 -0.5515,-1.84251 0.003,-0.26668 0.0415,-0.30447 0.27006,-0.25746 2.10548,2.8062 4.03887,5.52899 5.84445,8.33405 2.13963,3.32398 4.16911,6.71887 6.39431,10.21102 0.2489,0.49727 0.35001,0.86655 0.28975,1.41855 0.0493,1.21311 0.2731,2.24095 0.46706,3.27442 0.38329,2.04214 0.75006,4.08739 1.12361,6.13136 z"
   id="path88"
   style="stroke-width:0.683812" />
<path
   fill="#2942bf"
   opacity="1"
   stroke="none"
   d="m 413.0823,269.11761 c -0.40739,-0.86448 -0.81727,-1.93923 -0.82483,-3.01682 -0.0557,-7.91918 -0.0406,-15.83899 -0.0179,-23.7585 0.003,-0.89452 0.19018,-1.78851 0.47612,-2.8938 0.6357,2.88981 1.48668,5.99453 1.45685,9.09074 -0.0656,6.79122 -0.57708,13.57814 -1.09033,20.57838 z"
   id="path89"
   style="stroke-width:0.683812" />
<path
   fill="#213cd9"
   opacity="1"
   stroke="none"
   d="m 408.07633,295.06458 c -3.12277,1.8218 -2.57874,5.31192 -3.89604,7.83948 -1.46132,2.80413 -2.54595,5.80467 -4.02839,8.50898 2.07312,-7.1065 4.38002,-14.00227 6.84179,-20.71744 0.47633,1.2049 0.79779,2.22918 1.11927,3.25347 -0.007,0.29761 -0.0148,0.59523 -0.0367,1.11551 z"
   id="path90"
   style="stroke-width:0.683812" />
<path
   fill="#213cd9"
   opacity="1"
   stroke="none"
   d="m 359.57299,215.52718 c -0.37817,-2.26726 -0.74494,-4.31251 -1.12823,-6.35465 -0.19396,-1.03347 -0.41788,-2.06131 -0.2711,-3.12339 2.06573,5.80338 3.77428,11.63844 5.23989,17.40864 -1.00695,-1.39272 -1.77099,-2.72055 -2.5351,-4.04838 0.002,-0.29328 0.004,-0.58656 -0.005,-1.319 -0.42604,-0.77525 -0.84074,-1.11134 -1.25548,-1.44743 -0.0135,-0.29752 -0.0269,-0.59501 -0.045,-1.11579 z"
   id="path91"
   style="stroke-width:0.683812" />
<path
   fill="#2942bf"
   opacity="1"
   stroke="none"
   d="m 410.80164,223.94806 c -0.6525,-0.27645 -1.67046,-0.73295 -1.84883,-1.41055 -1.38201,-5.25032 -2.60181,-10.54335 -3.7037,-15.97803 0.84417,1.22025 1.74064,2.5324 2.15488,3.98237 1.24153,4.34568 2.29456,8.74521 3.39765,13.40621 z"
   id="path92"
   style="stroke-width:0.683812" />
<path
   fill="#2942bf"
   opacity="1"
   stroke="none"
   d="m 360.73351,219.58551 c 0.90905,1.15172 1.67309,2.47955 2.7,4.02312 0.26293,0.21573 0.2763,0.52005 0.33598,0.67698 0.17814,0.35468 0.34152,0.50288 0.55662,0.82615 0.005,0.52406 0.005,0.8235 0.003,1.12292 -0.31803,1.24496 -0.63603,2.48991 -1.11533,3.91886 -0.9828,-3.34131 -1.80432,-6.86662 -2.48078,-10.56803 z"
   id="path93"
   style="stroke-width:0.683812" />
<path
   fill="#2942bf"
   opacity="1"
   stroke="none"
   d="m 408.29544,293.77718 c -0.50396,-0.8524 -0.82542,-1.87668 -1.29959,-3.27654 0.0417,-0.69685 0.23598,-1.01815 0.65725,-1.38332 0.32306,-0.92463 0.4192,-1.80535 0.51088,-2.90869 0.0119,-0.5186 0.0282,-0.81457 0.0446,-1.11051 0.7081,-0.22926 1.41624,-0.45851 2.34192,-0.72749 -0.54573,3.05172 -1.30912,6.1432 -2.255,9.40655 z"
   id="path94"
   style="stroke-width:0.683812" />
<path
   fill="#2942bf"
   opacity="1"
   stroke="none"
   d="m 364.47858,337.90384 c 3.44663,0.54241 5.34626,3.05558 6.72936,6.37914 -2.20672,-1.89284 -4.42174,-4.0319 -6.72936,-6.37914 z"
   id="path95"
   style="stroke-width:0.683812" />
<path
   fill="#2942bf"
   opacity="1"
   stroke="none"
   d="m 362.85843,268.14932 c 0.50972,1.06807 0.82674,2.31585 1.31772,3.9666 0.162,0.69948 0.14998,0.99599 0.13796,1.29248 -0.7127,0.24255 -1.42549,0.48512 -2.36212,0.74641 0.0886,-1.92944 0.40118,-3.87761 0.90644,-6.00549 z"
   id="path96"
   style="stroke-width:0.683812" />
<path
   fill="#2942bf"
   opacity="1"
   stroke="none"
   d="m 412.18213,232.14119 c -2.60399,-1.34184 -2.08809,-3.78 -1.53463,-6.37978 0.6348,1.89913 1.09537,3.99555 1.53463,6.37978 z"
   id="path97"
   style="stroke-width:0.683812" />
<path
   fill="#2942bf"
   opacity="1"
   stroke="none"
   d="m 411.00441,282.82748 c 0.10389,-1.83994 0.39612,-3.85465 0.92297,-5.9372 -0.0885,1.8756 -0.41153,3.81902 -0.92297,5.9372 z"
   id="path98"
   style="stroke-width:0.683812" />
<path
   fill="#2942bf"
   opacity="1"
   stroke="none"
   d="m 405.40276,205.44637 c -1.51271,-1.37633 -3.26095,-2.9225 -2.26206,-5.70803 0.86158,1.70539 1.56235,3.57252 2.26206,5.70803 z"
   id="path99"
   style="stroke-width:0.683812" />
<path
   fill="#2942bf"
   opacity="1"
   stroke="none"
   d="m 412.3772,275.29013 c -0.11931,-1.3621 -0.0475,-2.91401 0.26966,-4.53305 0.13738,1.40301 0.0295,2.87311 -0.26966,4.53305 z"
   id="path100"
   style="stroke-width:0.683812" />
<path
   fill="#2942bf"
   opacity="1"
   stroke="none"
   d="m 412.90596,237.59961 c -0.36265,-0.96716 -0.71363,-2.21057 -0.8971,-3.64029 0.41456,0.99713 0.66169,2.18058 0.8971,3.64029 z"
   id="path101"
   style="stroke-width:0.683812" />
<path
   fill="#2942bf"
   opacity="1"
   stroke="none"
   d="m 345.16243,185.94414 c -0.17228,-0.89607 -0.32515,-1.811 -0.23211,-2.77337 0.24599,-0.0475 0.28753,-0.007 0.28632,0.26526 5e-4,0.99873 0.002,1.72509 0.004,2.45145 0,0 -0.0388,0.0378 -0.0582,0.0566 z"
   id="path102"
   style="stroke-width:0.683812" />
<path
   fill="#2942bf"
   opacity="1"
   stroke="none"
   d="m 345.15557,183.10314 c 0.52182,-0.66837 1.06437,-1.31658 1.82767,-2.01042 0.22073,-0.0456 0.25685,-0.009 0.24021,0.23643 -0.67967,0.77537 -1.34265,1.30494 -2.0056,1.83452 0,0 -0.0416,-0.0404 -0.0624,-0.0605 z"
   id="path103"
   style="stroke-width:0.683812" />
<path
   fill="#2942bf"
   opacity="1"
   stroke="none"
   d="m 359.63538,216.85937 c 0.39723,0.11969 0.81194,0.45578 1.24199,1.01111 -0.3979,-0.11875 -0.81118,-0.45672 -1.24199,-1.01111 z"
   id="path104"
   style="stroke-width:0.683812" />
<path
   fill="#011bfd"
   opacity="1"
   stroke="none"
   d="m 199.04881,100.45456 c 9.5123,-2.762442 18.62508,-6.305113 28.06683,-7.903108 10.34516,-1.750892 20.98624,-2.145061 31.5124,-2.330708 12.33833,-0.217605 24.20299,2.897986 36.04885,6.260549 12.68926,3.601977 24.36,9.258347 35.66375,15.792917 4.79978,2.77469 9.24948,6.16289 13.80557,9.34773 1.77178,1.23853 2.25068,2.61616 0.39955,4.44654 -9.23709,9.1337 -18.41594,18.32695 -27.5483,27.56545 -1.71256,1.73247 -3.11236,1.68931 -5.03293,0.32573 -10.20994,-7.24882 -21.34195,-12.67489 -33.61774,-15.20479 -7.95842,-1.64016 -16.08294,-2.77744 -24.18835,-3.33497 -14.87722,-1.02334 -29.64945,0.38426 -43.60229,5.84183 -9.25208,3.61891 -18.00291,8.51995 -26.9912,12.85336 -8.93165,-8.70252 -18.42357,-17.95093 -28.215,-27.4912 13.27933,-11.53408 28.17923,-19.11386 43.69886,-26.16933 m 39.33601,5.65742 c -1.83015,2.44213 -0.96052,3.60278 1.82901,3.50639 2.35985,-0.0815 2.89134,1.07035 2.83508,3.13855 -0.096,3.5292 -0.0861,7.06416 -0.0138,10.5945 0.19686,9.60176 -2.08197,8.69855 9.37892,8.75657 2.54182,0.0129 3.35256,-1.12596 3.29376,-3.56548 -0.12342,-5.12385 0.0337,-10.25416 -0.0681,-15.37897 -0.0456,-2.29074 0.35804,-3.77675 3.13099,-3.58346 0.76287,0.0532 2.18283,-0.55665 2.23757,-0.99504 0.10302,-0.82578 -0.35245,-1.947 -0.95303,-2.59627 -2.78096,-3.00649 -5.69917,-5.88566 -8.55264,-8.825604 -1.50706,-1.552823 -2.84802,-1.460786 -4.34746,0.113141 -2.74949,2.886033 -5.6128,5.663563 -8.77047,8.835673 z"
   id="path105"
   style="stroke-width:0.683812" />
<path
   fill="#253fcc"
   opacity="1"
   stroke="none"
   d="m 194.2809,258.58272 c -0.17426,-3.8577 -0.17058,-7.5203 -0.17265,-11.50272 1.33797,-5.20173 2.12985,-10.3294 4.16589,-14.90299 2.50919,-5.6363 5.59545,-11.15075 9.26021,-16.10528 5.39688,-7.29629 12.55319,-12.90522 21.00157,-16.24068 5.83683,-2.30441 12.06816,-4.23811 18.27127,-4.85987 14.69981,-1.47341 28.54869,1.69851 40.53588,10.74389 12.57908,9.49196 20.99905,21.60543 23.12437,37.69008 1.73695,13.14603 0.23244,25.67988 -6.5867,37.11872 -6.98688,11.72022 -16.84783,20.35622 -29.70769,25.37553 -11.8277,4.61648 -23.99462,5.05643 -36.13641,2.16521 -8.06911,-1.92143 -15.57235,-5.60286 -22.02865,-11.04138 -10.77578,-9.07702 -18.06514,-20.28021 -20.77702,-34.25552 -0.25801,-1.32983 -0.51476,-2.65993 -0.95007,-4.18499 m 71.35291,47.06066 c 2.91462,-0.92531 5.91165,-1.65011 8.7308,-2.80801 20.71549,-8.5081 33.84462,-27.8396 34.49384,-49.77958 0.29986,-10.1356 -2.39901,-19.81557 -7.90671,-28.51307 -12.03835,-19.01032 -29.28928,-28.21124 -51.79434,-27.03531 -17.15997,0.89663 -30.86443,8.72778 -41.22245,22.2006 -8.27705,10.76612 -12.21874,23.26186 -10.89635,36.76371 1.53519,15.67536 8.42457,28.86366 21.1258,38.65483 13.9954,10.7888 29.64869,14.24936 47.46941,10.51683 z"
   id="path106"
   style="stroke-width:0.683812" />
<path
   fill="#0e0e17"
   opacity="1"
   stroke="none"
   d="m 106.33858,264.71896 c -3.53276,-3.7561 -7.06552,-7.51222 -10.334179,-11.55041 3.98956,-3.79511 7.715019,-7.30815 11.684449,-11.05125 0.69974,5.95892 0.69974,5.95946 6.36143,5.962 3.0682,0.001 6.13668,-0.0263 9.20454,0.006 8.05405,0.0844 7.15345,-1.15936 7.2925,7.65046 0.04,2.53648 -0.95037,3.41567 -3.42519,3.35955 -5.11103,-0.11592 -10.22814,0.0416 -15.33949,-0.0669 -2.33754,-0.0496 -3.61402,0.64935 -3.84916,3.16451 -0.0827,0.88401 -1.03802,1.68643 -1.5949,2.52609 m 3.41714,-6.63491 c 2.57622,0.0974 5.15579,0.32573 7.72784,0.25993 3.43676,-0.0879 6.86769,-0.40419 10.75224,-0.91739 0.32417,-2.57147 0.64835,-5.14295 1.0295,-8.16644 -7.85773,0 -14.9461,0 -22.1033,0 -0.12679,-1.45132 -0.22047,-2.52361 -0.32831,-3.75795 -2.92601,2.82337 -5.62527,5.42794 -7.719916,7.4491 2.587696,2.90759 5.005966,5.62482 7.513536,8.44237 0.89106,-1.4456 -0.70608,-4.49148 3.12841,-3.30962 z"
   id="path107"
   style="stroke-width:0.683812" />
<path
   fill="#020656"
   opacity="1"
   stroke="none"
   d="m 106.4419,264.92166 c 0.45356,-1.04236 1.40894,-1.84477 1.49158,-2.72879 0.23514,-2.51516 1.51162,-3.21407 3.84916,-3.1645 5.11135,0.10842 10.22846,-0.049 15.33949,0.0669 2.47482,0.0562 3.46523,-0.82307 3.42519,-3.35954 -0.13905,-8.80982 0.76155,-7.56603 -7.2925,-7.65046 -3.06786,-0.0321 -6.13634,-0.005 -9.20454,-0.006 -5.66169,-0.003 -5.66169,-0.003 -6.36143,-5.96199 -3.96943,3.74309 -7.694889,7.25614 -11.639183,10.82 3.198424,-3.65734 6.468163,-7.52004 10.107133,-10.99601 1.41262,-1.34936 3.19242,-0.68365 3.05413,1.67966 -0.17324,2.96063 1.44131,3.31142 3.81894,3.26386 4.99543,-0.0999 9.99518,0.029 14.99141,-0.0485 2.61046,-0.0405 3.76151,1.08714 3.66771,3.67995 -0.0739,2.04219 -0.0705,4.09106 -8.9e-4,6.13354 0.0907,2.66048 -1.22891,3.62572 -3.76416,3.58989 -5.11001,-0.0722 -10.2227,0.0363 -15.33238,-0.0471 -2.19689,-0.0358 -3.46411,0.54656 -3.36983,3.04004 0.0667,1.76308 -0.5517,3.01018 -2.7798,1.68897 z"
   id="path108"
   style="stroke-width:0.683812" />
<path
   fill="#f8f8f8"
   opacity="1"
   stroke="none"
   d="m 256.44313,377.42694 c 1.2e-4,6.22944 1.2e-4,12.12029 1.2e-4,18.20835 1.39569,0.1442 2.48662,0.25689 3.58949,0.37083 -2.72201,2.37496 -5.46144,4.76513 -8.18893,7.1449 -1.78071,-1.71836 -4.4122,-4.25773 -7.51697,-7.25376 4.07586,0.58379 4.31579,-1.60018 4.24246,-4.40301 -0.15084,-5.76684 -0.0454,-11.54036 -0.0454,-17.48904 2.70609,0 5.13967,0 7.91904,0 0,1.10748 0,2.09531 1.1e-4,3.42173 z"
   id="path109"
   style="stroke-width:0.683812" />
<path
   fill="#011bfd"
   opacity="1"
   stroke="none"
   d="m 364.3292,273.69078 c -0.003,-0.57887 0.009,-0.87538 0.0184,-1.39441 0.67439,-3.96881 1.88778,-7.70929 1.928,-11.46236 0.12236,-11.42003 0.96795,-22.90243 -1.75935,-34.40399 -0.18552,-0.49476 -0.18445,-0.7942 -0.2472,-1.47607 -0.18307,-0.58138 -0.34819,-0.729 -0.55922,-0.82527 0,0 -0.0134,-0.30432 -0.0334,-0.45517 -1.72855,-5.98593 -3.4371,-11.82099 -5.3416,-17.8071 -0.29693,-0.5203 -0.39804,-0.88958 -0.68124,-1.63756 -3.04189,-5.76579 -5.81268,-11.20289 -8.80343,-16.51615 -1.25297,-2.22604 -1.60254,-3.72837 0.56782,-5.81239 7.86376,-7.55097 15.47319,-15.36678 23.19271,-23.06846 0.84302,-0.84109 1.77767,-1.59028 2.45148,-2.18829 1.88545,1.74502 3.44957,3.19259 5.01361,4.64018 -2e-5,1e-5 0.008,-0.009 0.033,0.23516 2.05653,3.0487 4.08787,5.85281 6.11923,8.65693 0,0 0.008,-0.0109 0.0321,0.23233 1.13356,1.92483 2.24347,3.60635 3.35339,5.28789 0,0 0.0145,0.3067 0.0348,0.45874 3.52707,7.39926 7.43588,14.48391 10.44604,21.93192 4.47143,11.06365 7.98608,22.47516 9.38415,34.41221 0.75078,6.41058 1.84295,12.8242 1.98244,19.25377 0.23918,11.02525 -0.97548,21.97813 -3.27652,33.06412 0.008,0.57725 -0.008,0.87322 -0.2017,1.55665 -0.30351,1.18756 -0.4299,1.98765 -0.5563,2.78775 -0.19439,0.32128 -0.38872,0.64258 -0.58528,1.15884 -2.30902,7.09072 -4.61591,13.98649 -6.92894,21.14663 -0.20206,0.59126 -0.39796,0.91818 -0.80194,1.57994 -1.46331,3.20673 -2.71861,6.07859 -3.9739,8.95047 -0.21573,0.31865 -0.43147,0.6373 -0.86961,1.26561 -0.76268,1.38441 -1.30284,2.45916 -1.84306,3.53389 -0.21294,0.31805 -0.42589,0.63612 -0.86795,1.25935 -2.12602,3.43581 -4.02288,6.56646 -5.91977,9.69709 -0.20043,0.32669 -0.40085,0.65335 -0.88535,1.26142 -1.4997,2.04465 -2.71541,3.80792 -3.93113,5.57119 -0.18713,0.33596 -0.37428,0.67191 -0.63977,1.18366 -1.65366,1.62678 -2.85701,1.26883 -4.33626,-0.23305 -9.01431,-9.152 -18.07986,-18.25517 -27.24972,-27.25081 -1.90778,-1.87157 -2.16684,-3.24054 -0.54498,-5.45168 8.53317,-11.63375 13.73291,-24.70308 16.28065,-39.14298 m 14.73615,-29.67214 c -10.75686,0.28091 -8.96714,-2.10002 -9.21514,9.43751 -0.0559,2.59426 1.03566,3.35488 3.47027,3.29645 5.00261,-0.12014 10.0114,0.0314 15.01506,-0.0644 2.35391,-0.0451 4.07522,0.20903 3.77874,3.24789 -0.0696,0.71331 0.53008,1.93468 1.10762,2.14794 0.61729,0.22786 1.77968,-0.24356 2.34586,-0.78469 3.12464,-2.98617 6.25876,-5.98319 9.09425,-9.23412 0.58179,-0.66698 0.38985,-2.85294 -0.27481,-3.6156 -2.68506,-3.08081 -5.65227,-5.92319 -8.6172,-8.74652 -0.65047,-0.61939 -1.7191,-0.79942 -2.59519,-1.18179 -0.37791,0.88273 -1.08721,1.77221 -1.06948,2.6469 0.0473,2.32093 -1.05021,2.94226 -3.14646,2.87386 -3.06824,-0.10013 -6.14222,-0.0243 -9.89352,-0.0234 z"
   id="path110"
   style="stroke-width:0.683812" />
<path
   fill="#213cd9"
   opacity="1"
   stroke="none"
   d="m 380.07554,161.03329 c -1.56374,-1.19714 -3.12785,-2.64471 -5.01331,-4.38973 -0.67381,0.59801 -1.60846,1.3472 -2.45148,2.18829 -7.71952,7.70168 -15.32895,15.51749 -23.1927,23.06846 -2.17037,2.08402 -1.8208,3.58635 -0.56782,5.81239 2.99074,5.31326 5.76154,10.75036 8.65547,16.38816 -2.04295,-3.11345 -4.07243,-6.50834 -6.21206,-9.83232 -1.80558,-2.80506 -3.73897,-5.52785 -5.84445,-8.33405 -0.23034,-0.77337 -0.23205,-1.49973 -0.23255,-2.49846 0.66416,-0.80194 1.32714,-1.33151 2.02484,-2.08872 1.12496,-0.98374 2.35425,-1.5992 3.28328,-2.51825 7.26627,-7.18802 14.47294,-14.43623 21.70377,-21.66004 0.87335,-0.87249 1.78143,-1.71017 3.21082,-3.07837 1.66099,2.39771 3.1484,4.54496 4.63619,6.94264 z"
   id="path111"
   style="stroke-width:0.683812" />
<path
   fill="#213cd9"
   opacity="1"
   stroke="none"
   d="m 386.22854,169.91957 c -2.03188,-2.54786 -4.06322,-5.35197 -6.12524,-8.39681 3.14225,1.72941 5.08381,4.60446 6.12524,8.39681 z"
   id="path112"
   style="stroke-width:0.683812" />
<path
   fill="#213cd9"
   opacity="1"
   stroke="none"
   d="m 389.62534,175.43552 c -1.12187,-1.42101 -2.23178,-3.10253 -3.37138,-5.02287 1.10805,1.42824 2.24566,3.09529 3.37138,5.02287 z"
   id="path113"
   style="stroke-width:0.683812" />
<path
   fill="#213cd9"
   opacity="1"
   stroke="none"
   d="m 385.86469,337.70982 c 1.66796,-3.08742 3.56483,-6.21807 5.67118,-9.45604 -0.15506,3.96843 -2.59763,6.81003 -5.67118,9.45604 z"
   id="path114"
   style="stroke-width:0.683812" />
<path
   fill="#213cd9"
   opacity="1"
   stroke="none"
   d="m 395.37071,321.94956 c 1.02074,-2.82435 2.27603,-5.69621 3.72517,-8.70537 -1.03435,2.79444 -2.2625,5.72616 -3.72517,8.70537 z"
   id="path115"
   style="stroke-width:0.683812" />
<path
   fill="#213cd9"
   opacity="1"
   stroke="none"
   d="m 381.05171,344.5459 c 0.9833,-1.72353 2.199,-3.4868 3.61706,-5.35815 0.49858,2.68739 -1.24186,4.13591 -3.61706,5.35815 z"
   id="path116"
   style="stroke-width:0.683812" />
<path
   fill="#213cd9"
   opacity="1"
   stroke="none"
   d="m 392.64236,326.75234 c 0.32135,-1.03048 0.8615,-2.10523 1.60223,-3.29143 -0.32743,1.00809 -0.85537,2.12763 -1.60223,3.29143 z"
   id="path117"
   style="stroke-width:0.683812" />
<path
   fill="#213cd9"
   opacity="1"
   stroke="none"
   d="m 363.76949,224.28561 c 0.15134,-0.0607 0.31646,0.087 0.49278,0.44373 -0.15126,0.0592 -0.31464,-0.089 -0.49278,-0.44373 z"
   id="path118"
   style="stroke-width:0.683812" />
<path
   fill="#213cd9"
   opacity="1"
   stroke="none"
   d="m 407.65308,289.11732 c -0.10046,-0.75621 0.026,-1.5563 0.33383,-2.52123 0.0854,0.71588 -0.0108,1.5966 -0.33383,2.52123 z"
   id="path119"
   style="stroke-width:0.683812" />
<path
   fill="#0f102c"
   opacity="1"
   stroke="none"
   d="m 238.55572,105.9373 c 2.98678,-2.99743 5.85008,-5.77496 8.59957,-8.660993 1.49944,-1.573927 2.8404,-1.665964 4.34746,-0.113141 2.85348,2.939944 5.77169,5.819114 8.55264,8.825604 0.60058,0.64927 1.05605,1.77049 0.95304,2.59627 -0.0548,0.43839 -1.4747,1.04821 -2.23757,0.99504 -2.77296,-0.19329 -3.17639,1.29272 -3.13099,3.58346 0.10163,5.12481 -0.0556,10.25512 0.0681,15.37897 0.0588,2.43952 -0.75194,3.57835 -3.29376,3.56548 -11.46089,-0.058 -9.18205,0.84519 -9.37892,-8.75657 -0.0724,-3.53034 -0.0823,-7.0653 0.0138,-10.5945 0.0564,-2.0682 -0.47523,-3.22009 -2.83508,-3.13855 -2.78952,0.0964 -3.65916,-1.06426 -1.6581,-3.68107 m 6.82832,21.40408 c 0.49418,0.68865 0.92763,1.9063 1.49344,1.9713 2.07754,0.23872 4.19914,0.0947 6.6463,0.0947 0,-7.62106 0,-14.72874 0,-21.88354 1.42871,-0.13906 2.50008,-0.24334 3.69622,-0.35977 -2.72254,-2.80541 -5.27481,-5.43539 -7.61425,-7.846035 -2.7751,2.559245 -5.47009,5.044625 -8.44146,7.784915 1.62143,0.18598 2.71453,0.31137 4.21875,0.4839 0,6.4229 0,12.75191 6.8e-4,19.75457 z"
   id="path120"
   style="stroke-width:0.683812" />
<path
   fill="#011cfe"
   opacity="1"
   stroke="none"
   d="m 265.35251,305.69863 c -17.53942,3.67728 -33.19271,0.21672 -47.18811,-10.57208 -12.70123,-9.79117 -19.59061,-22.97947 -21.1258,-38.65483 -1.32239,-13.50185 2.6193,-25.99759 10.89635,-36.76371 10.35802,-13.47282 24.06248,-21.30397 41.22245,-22.2006 22.50506,-1.17593 39.75599,8.02499 51.79434,27.03531 5.5077,8.6975 8.20657,18.37747 7.90671,28.51307 -0.64922,21.93998 -13.77835,41.27148 -34.49384,49.77958 -2.81915,1.1579 -5.81618,1.8827 -9.0121,2.86326 M 233.489,254.94935 c 0.95844,5.70542 4.07957,8.70576 8.78298,8.44314 4.64069,-0.25911 7.70013,-3.83416 7.8044,-9.42369 0.0397,-2.12486 -0.0967,-4.34169 -0.67029,-6.37025 -1.07868,-3.81528 -3.9098,-5.64432 -7.90719,-5.60001 -3.73692,0.0414 -6.37468,1.85098 -7.40494,5.65431 -0.57977,2.14012 -0.46835,4.46756 -0.60496,7.2965 m 34.34616,-10.58468 c 0.35567,-0.62422 0.71134,-1.24845 1.3772,-2.41716 -6.28213,0.57812 -7.44658,6.77996 -12.09115,9.1835 0,-3.08885 0,-5.86455 0,-8.64026 -0.28226,-0.21997 -0.56452,-0.43993 -0.84678,-0.6599 -0.72156,0.60004 -2.05562,1.18545 -2.07038,1.80237 -0.15324,6.41763 -0.0944,12.84034 -0.0944,19.10553 2.94022,0.97622 3.03151,-0.52649 3.01037,-2.33455 -0.0278,-2.37336 -0.61055,-5.03499 2.58693,-6.33602 1.486,1.95643 2.8924,3.87149 4.36758,5.73202 1.37819,1.73819 2.33749,4.36348 5.80386,2.79335 -2.77541,-3.74917 -5.44928,-7.36113 -8.25118,-11.14603 2.03642,-2.33249 3.96193,-4.53796 6.20795,-7.08285 z"
   id="path121"
   style="stroke-width:0.683812" />
<path
   fill="#f0f0f0"
   opacity="1"
   stroke="none"
   d="m 109.32077,257.71909 c -3.39954,-0.81689 -1.8024,2.22898 -2.69346,3.67459 -2.50757,-2.81756 -4.92584,-5.53478 -7.513536,-8.44237 2.094646,-2.02116 4.793906,-4.62574 7.719916,-7.4491 0.10784,1.23434 0.20152,2.30663 0.32831,3.75794 7.1572,0 14.24557,0 22.1033,0 -0.38115,3.02349 -0.70533,5.59498 -1.56583,8.22878 -6.48378,0.11828 -12.43124,0.17423 -18.3787,0.23016 z"
   id="path122"
   style="stroke-width:0.683812" />
<path
   fill="#1f1f1f"
   opacity="1"
   stroke="none"
   d="m 109.53824,257.90159 c 5.72999,-0.23843 11.67745,-0.29438 17.93567,-0.26515 -3.12266,0.30336 -6.55359,0.61959 -9.99035,0.70754 -2.57205,0.0658 -5.15162,-0.16254 -7.94532,-0.44239 z"
   id="path123"
   style="stroke-width:0.683812" />
<path
   fill="#0f112d"
   opacity="1"
   stroke="none"
   d="m 379.4052,244.01863 c 3.41145,-6.8e-4 6.48544,-0.0767 9.55367,0.0234 2.09625,0.0684 3.19364,-0.55292 3.14646,-2.87386 -0.0178,-0.87468 0.69157,-1.76416 1.06949,-2.64689 0.87608,0.38237 1.94471,0.5624 2.59518,1.18179 2.96494,2.82333 5.93214,5.66571 8.6172,8.74652 0.66467,0.76266 0.8566,2.94862 0.27481,3.6156 -2.83549,3.25093 -5.96961,6.24794 -9.09425,9.23411 -0.56617,0.54114 -1.72857,1.01256 -2.34585,0.7847 -0.57754,-0.21326 -1.17724,-1.43463 -1.10763,-2.14795 0.29649,-3.03886 -1.42483,-3.29294 -3.77873,-3.24788 -5.00367,0.0958 -10.01246,-0.0557 -15.01506,0.0644 -2.43462,0.0585 -3.52603,-0.70219 -3.47028,-3.29645 0.248,-11.53752 -1.54171,-9.1566 9.55499,-9.43751 m 22.72952,5.59993 c -2.41168,-2.42004 -4.82338,-4.8401 -7.53475,-7.56085 -0.21465,1.7996 -0.34436,2.88718 -0.51732,4.33734 -7.29139,0 -14.38986,0 -21.49908,0 0,2.83993 0,5.28227 0,8.09532 7.30576,0 14.40521,0 21.57931,0 0.13899,1.4477 0.24286,2.52882 0.44719,4.65712 2.96438,-3.47034 5.39019,-6.31016 7.52465,-9.52893 z"
   id="path124"
   style="stroke-width:0.683812" />
<path
   fill="#f4f4f4"
   opacity="1"
   stroke="none"
   d="m 245.38354,127.00455 c -5e-4,-6.66583 -5e-4,-12.99484 -5e-4,-19.41774 -1.50421,-0.17254 -2.59731,-0.29792 -4.21875,-0.4839 2.97138,-2.74029 5.66637,-5.22567 8.44147,-7.784916 2.33943,2.410646 4.89171,5.040626 7.61424,7.846036 -1.19613,0.11642 -2.2675,0.22071 -3.69621,0.35977 0,7.1548 0,14.26248 0,21.88354 -2.44716,0 -4.56876,0.14406 -6.6463,-0.0947 -0.56581,-0.065 -0.99927,-1.28265 -1.49395,-2.30813 z"
   id="path125"
   style="stroke-width:0.683812" />
<path
   fill="#dde3fb"
   opacity="1"
   stroke="none"
   d="m 233.45732,254.65642 c 0.16829,-2.53601 0.057,-4.86345 0.63664,-7.00357 1.03026,-3.80333 3.66802,-5.61289 7.40494,-5.65431 3.99739,-0.0443 6.82851,1.78473 7.90719,5.60001 0.57355,2.02856 0.70994,4.24539 0.67029,6.37025 -0.10427,5.58953 -3.16371,9.16458 -7.8044,9.42369 -4.70341,0.26262 -7.82454,-2.73772 -8.81466,-8.73607 m 3.19129,-4.99278 c 0.13852,2.46224 0.014,4.97681 0.49049,7.3718 0.4643,2.33381 2.25576,3.59393 4.74291,3.55628 2.673,-0.0405 4.28332,-1.57919 4.7571,-4.02679 0.38198,-1.97308 0.40155,-4.05735 0.28757,-6.07567 -0.16533,-2.92814 -1.23649,-5.40671 -4.61291,-5.76437 -3.1777,-0.33659 -4.76941,1.54668 -5.66516,4.93875 z"
   id="path126"
   style="stroke-width:0.683812" />
<path
   fill="#e3e7fb"
   opacity="1"
   stroke="none"
   d="m 267.67485,244.53439 c -2.08571,2.37517 -4.01122,4.58064 -6.04764,6.91313 2.8019,3.7849 5.47577,7.39686 8.25118,11.14603 -3.46637,1.57013 -4.42567,-1.05516 -5.80386,-2.79335 -1.47518,-1.86053 -2.88158,-3.77559 -4.36758,-5.73202 -3.19748,1.30103 -2.61471,3.96266 -2.58693,6.33602 0.0212,1.80806 -0.0702,3.31077 -3.01037,2.33455 0,-6.26519 -0.059,-12.6879 0.0944,-19.10553 0.0147,-0.61692 1.34882,-1.20233 2.07038,-1.80237 0.28226,0.21997 0.56452,0.43993 0.84678,0.6599 0,2.77571 0,5.55141 0,8.64026 4.64457,-2.40354 5.80902,-8.60538 12.09115,-9.1835 -0.66586,1.16871 -1.02153,1.79294 -1.53751,2.58688 z"
   id="path127"
   style="stroke-width:0.683812" />
<path
   fill="#f3f3f3"
   opacity="1"
   stroke="none"
   d="m 402.28042,249.80805 c -2.28016,3.02929 -4.70597,5.8691 -7.67035,9.33944 -0.20433,-2.12829 -0.3082,-3.20941 -0.44719,-4.65712 -7.1741,0 -14.27355,0 -21.57931,0 0,-2.81304 0,-5.25539 0,-8.09532 7.10922,0 14.20769,0 21.49908,0 0.17296,-1.45015 0.30267,-2.53774 0.51732,-4.33733 2.71137,2.72075 5.12307,5.1408 7.68045,7.75033 z"
   id="path128"
   style="stroke-width:0.683812" />
<path
   fill="#0922f7"
   opacity="1"
   stroke="none"
   d="m 236.72751,249.38935 c 0.81685,-3.11778 2.40856,-5.00105 5.58626,-4.66446 3.37642,0.35766 4.44758,2.83623 4.61291,5.76437 0.11398,2.01832 0.0944,4.10259 -0.28757,6.07567 -0.47378,2.4476 -2.0841,3.98633 -4.7571,4.02679 -2.48715,0.0376 -4.27861,-1.22247 -4.74291,-3.55628 -0.47647,-2.39499 -0.35197,-4.90956 -0.41159,-7.64609 z"
   id="path129"
   style="stroke-width:0.683812" />
</svg>
